<?xml version="1.0" encoding="utf-8"?>
<!-- Generator: Adobe Illustrator 18.0.0, SVG Export Plug-In . SVG Version: 6.00 Build 0)  -->
<!DOCTYPE svg PUBLIC "-//W3C//DTD SVG 1.1//EN" "http://www.w3.org/Graphics/SVG/1.1/DTD/svg11.dtd">
<svg version="1.1" id="Layer_1" xmlns="http://www.w3.org/2000/svg" xmlns:xlink="http://www.w3.org/1999/xlink" x="0px" y="0px"
	 viewBox="124.7 117 362 505.6" enable-background="new 124.7 117 362 505.6" xml:space="preserve">
<g id="Avatar_3">
	<path fill="#DCDBDB" d="M128.5,619.5h354.3v-81.3c0-66.9-59.3-121.6-131.5-121.6h-9.1v-13.7v-23.6h-74.5v37.3H260
		c-72.2,0-131.5,54.7-131.5,121.6L128.5,619.5L128.5,619.5z"/>
	<path fill="#1C1C1C" d="M132.3,615.7h347.4v-77.5c0-32.7-14.4-61.6-37.3-83.6c-23.6-21.3-55.5-35-90.5-35h-9.9
		c-2.3,0-3.8-1.5-3.8-3.8v-33.5h-67.7v33.5c0,2.3-1.5,3.8-3.8,3.8h-7.6c-35,0-67.7,13.7-90.5,35c-22.8,21.3-37.3,50.9-37.3,83.6
		v77.5H132.3z M483.5,622.6h-355c-2.3,0-3.8-1.5-3.8-3.8v-80.6c0-34.2,15.2-66.1,39.5-88.2c24.3-22.8,58.5-36.5,95-36.5h3.8V380
		c0-2.3,1.5-3.8,3.8-3.8h75.3c2.3,0,3.8,1.5,3.8,3.8v33.5h6.1c37.3,0,70.7,13.7,95,36.5c24.3,22.8,39.5,54,39.5,88.2v80.6
		C487.3,621,485,622.6,483.5,622.6z"/>
	<path fill="#1C1C1C" d="M197.7,511.6c0.8-1.5,3-3,4.6-2.3c1.5,0.8,3,3,2.3,4.6c-2.3,6.1-3.8,12.2-4.6,19
		c-0.8,6.1-1.5,12.9-1.5,19.8v63.9h216.7v-63.9c0-6.8-0.8-12.9-1.5-19.8s-3-12.9-4.6-19c-0.8-1.5,0-3.8,2.3-4.6
		c1.5-0.8,3.8,0,4.6,2.3c2.3,6.1,3.8,12.9,5.3,19.8c0.8,6.8,1.5,13.7,1.5,20.5v66.9c0,2.3-1.5,3.8-3.8,3.8h-225
		c-2.3,0-3.8-1.5-3.8-3.8v-66.9c0-6.8,0.8-13.7,1.5-20.5C193.1,524.5,195.4,517.6,197.7,511.6z"/>
	<path fill="#FDC27A" d="M342.1,369.4c0,15.2,0.8,93.5,0.8,93.5c-24.3,17.5-48.7,17.5-74.5,0c0-17.5-0.8-96.6-0.8-96.6
		C293.5,387.6,318.5,389.2,342.1,369.4z"/>
	<path fill="#1C1C1C" d="M345.9,369.4c0,18.2,0.8,93.5,0.8,93.5c0,1.5-0.8,2.3-1.5,3l0,0c-12.9,9.1-25.8,13.7-38.8,13.7
		c-12.9,0-26.6-4.6-40.3-13.7c-0.8-0.8-1.5-1.5-1.5-3c0-19.8-0.8-96.6-0.8-96.6c0-2.3,1.5-3.8,3.8-3.8c0.8,0,1.5,0,2.3,0.8
		c12.2,9.9,24.3,15.2,35.7,16c11.4,0.8,22.8-3.8,34.2-12.9c1.5-1.5,3.8-0.8,5.3,0.8C345.9,367.9,345.9,368.6,345.9,369.4
		L345.9,369.4L345.9,369.4z M339.8,461.4c0-10.6-0.8-63.9-0.8-85.1c-10.6,7.6-22,10.6-33.5,9.9c-11.4-0.8-22.8-4.6-34.2-12.9
		c0,19.8,0.8,72.2,0.8,87.4c11.4,7.6,23.6,11.4,34.2,11.4C317.8,472.8,329.2,469,339.8,461.4z"/>
	
		<rect x="217.5" y="514.6" transform="matrix(-0.2088 0.978 -0.978 -0.2088 894.4603 312.3516)" fill="#1C1C1C" width="206.8" height="6.8"/>
	<polygon fill="#1C1C1C" points="334.5,462.1 386.2,513.8 325.4,621 319.3,617.2 377.8,515.4 329.9,467.5 	"/>
	
		<rect x="197.1" y="501" transform="matrix(0.2088 0.978 -0.978 0.2088 719.9225 118.9838)" fill="#1C1C1C" width="178.7" height="6.8"/>
	<polygon fill="#1C1C1C" points="280.5,467.5 232.6,515.4 291.2,617.2 285.1,621 223.5,513.8 275.2,462.1 	"/>
	<path fill="#40545A" d="M280.5,494.1l24.3,98.1l24.3-98.1l9.1-50.9c-22,7.6-44.1,7.6-67.7,0L280.5,494.1z"/>
	<path fill="#1C1C1C" d="M283.6,493.3l21.3,84.4l21.3-84.4l8.4-44.9c-9.1,2.3-19,3.8-28.9,3.8c-9.9,0-19.8-1.5-29.6-3.8L283.6,493.3
		L283.6,493.3z M301.8,592.9l-25.1-98.1l-9.1-50.9c0-0.8,0-1.5,0-2.3c0.8-1.5,2.3-3,4.6-2.3c11.4,3.8,22.8,5.3,33.5,5.3
		s21.3-1.5,31.9-5.3c0.8,0,1.5,0,1.5,0c2.3,0,3,2.3,3,3.8l-9.1,50.2c0,0,0,0,0,0.8l-24.3,98.1c0,1.5-1.5,2.3-2.3,3
		C304.1,595.9,301.8,594.4,301.8,592.9z"/>
	<path fill="#FDC27A" d="M306.4,148.9L306.4,148.9c48.7,0,88.2,39.5,88.2,88.2v65.4c0,48.7-39.5,88.2-88.2,88.2l0,0
		c-48.7,0-88.2-39.5-88.2-88.2v-65.4C218.2,189.2,257.7,148.9,306.4,148.9z"/>
	<path fill="#1C1C1C" d="M306.4,145.9c25.1,0,48.7,10.6,64.6,27.4c16.7,16.7,27.4,39.5,27.4,64.6v65.4c0,25.1-10.6,48.7-27.4,64.6
		c-16.7,16.7-39.5,27.4-64.6,27.4s-48.7-10.6-64.6-27.4c-16.7-16.7-27.4-39.5-27.4-64.6v-65.4c0-25.1,10.6-48.7,27.4-64.6
		C258.5,155.8,281.3,145.9,306.4,145.9L306.4,145.9z M366.4,177.8c-15.2-15.2-36.5-25.1-60.1-25.1c-23.6,0-44.9,9.9-60.1,25.1
		c-15.2,15.2-25.1,36.5-25.1,60.1v65.4c0,23.6,9.9,44.9,25.1,60.1c15.2,15.2,36.5,25.1,60.1,25.1c23.6,0,44.9-9.9,60.1-25.1
		c15.2-15.2,25.1-36.5,25.1-60.1v-65.4C391.5,214.3,381.6,193,366.4,177.8z"/>
	<path fill="#1C1C1C" d="M308.7,316.9c0,2.3-1.5,3.8-3.8,3.8c-2.3,0-3.8-1.5-3.8-3.8c0-6.1,0-9.1,1.5-11.4l0,0c2.3-3,4.6-3,9.9-3
		c2.3,0,3-0.8,3.8-2.3c0-0.8,0-1.5,0-2.3c0-0.8,0-1.5,0-2.3c-0.8-1.5-1.5-2.3-2.3-2.3c-2.3,0-3.8-1.5-3.8-3.8v-27.4
		c0-2.3,1.5-3.8,3.8-3.8c2.3,0,3.8,1.5,3.8,3.8v24.3c3,0.8,4.6,3.8,5.3,6.1c0.8,1.5,0.8,3,0.8,4.6c0,1.5,0,3-0.8,4.6
		c-1.5,3.8-4.6,6.8-10.6,6.8c-3,0-3.8,0-3.8,0l0,0C308.7,310.1,308.7,312.4,308.7,316.9z"/>
	<path fill="#FFFFFF" d="M336,329.9c-2.3,14.4-15.2,25.8-31.2,25.8l0,0c-15.2,0-28.1-11.4-31.2-25.8H336z"/>
	<path fill="#1C1C1C" d="M339.8,330.6c-1.5,8.4-6.1,15.2-12.2,20.5c-6.1,5.3-13.7,8.4-22.8,8.4c-8.4,0-16.7-3-22.8-8.4
		c-6.1-5.3-10.6-12.2-12.2-20.5c0-2.3,0.8-3.8,3-3.8h0.8H336C338.3,326.8,339.8,328.3,339.8,330.6
		C339.8,329.9,339.8,330.6,339.8,330.6L339.8,330.6z M323.1,345.8c3.8-3,6.8-7.6,8.4-12.2h-53.2c1.5,4.6,4.6,9.1,8.4,12.2
		c4.6,3.8,11.4,6.8,18.2,6.8C311.7,351.9,317.8,349.6,323.1,345.8z"/>
	<path fill="#FDC27A" d="M218.2,256.1L218.2,256.1c-0.8-3.8-3.8-6.8-7.6-6.8h-6.1c-4.6,0-7.6,3.8-7.6,7.6V282l0,0
		c0,12.9,9.1,23.6,22,25.8V282v-25.1v-0.8H218.2z"/>
	<path fill="#1C1C1C" d="M214.4,256.9L214.4,256.9c0-1.5-0.8-2.3-1.5-3c-0.8-0.8-1.5-0.8-3-0.8h-6.1c-1.5,0-2.3,0.8-3,1.5
		s-1.5,1.5-1.5,3V282c0,5.3,2.3,10.6,5.3,14.4c2.3,3,5.3,5.3,9.1,6.8v-46.4H214.4z M218.2,248.5c0.8,0.8,2.3,2.3,3,3.8h1.5v60.1
		l-4.6-0.8c-6.8-1.5-12.9-5.3-17.5-10.6c-4.6-5.3-6.8-12.2-6.8-19v-25.1c0-3,1.5-6.1,3-8.4c2.3-2.3,4.6-3,8.4-3h6.1
		C213.6,245.5,215.9,247,218.2,248.5z"/>
	<path fill="#FDC27A" d="M395.3,256.1L395.3,256.1c0.8-3.8,3.8-6.8,7.6-6.8h6.1c4.6,0,7.6,3.8,7.6,7.6V282l0,0
		c0,12.9-9.1,23.6-22,25.8V282v-25.1v-0.8H395.3z"/>
	<path fill="#1C1C1C" d="M398.4,256.9L398.4,256.9v46.4c3.8-1.5,6.8-3.8,9.1-6.8c3-3.8,5.3-9.1,5.3-14.4v-25.1c0-1.5-0.8-2.3-1.5-3
		c-0.8-0.8-1.5-1.5-3-1.5h-5.3c-0.8,0-2.3,0.8-3,0.8C399.1,254.6,399.1,255.4,398.4,256.9L398.4,256.9z M392.3,252.3
		c0.8-1.5,1.5-2.3,3-3.8c2.3-1.5,4.6-3,7.6-3h6.1c3,0,6.1,1.5,8.4,3c2.3,2.3,3,4.6,3,8.4V282c0,7.6-2.3,13.7-6.8,19
		s-10.6,9.1-17.5,10.6l-4.6,0.8v-60.1H392.3z"/>
	<polygon fill="#A1A1A0" points="334.5,467.5 355,487.2 396.8,475.8 370.2,418 342.1,399 	"/>
	<path fill="#1C1C1C" d="M338.3,465.9l17.5,17.5l35.7-9.9l-25.1-53.2l-22-15.2L338.3,465.9L338.3,465.9z M352,490.3L330.7,469
		c3-25.1,6.1-50.2,9.1-76l33.5,22.8l28.9,63.1l-47.9,12.9L352,490.3z"/>
	<polygon fill="#A1A1A0" points="275.2,467.5 255.4,487.2 212.9,475.8 240.2,418 267.6,399 	"/>
	<path fill="#1C1C1C" d="M278.3,469.7l-22,22l-47.9-12.9c9.9-21.3,19.8-41.8,28.9-63.1l33.5-22.8l9.1,76L278.3,469.7L278.3,469.7z
		 M253.9,483.4l17.5-17.5l-6.8-60.8l-22,15.2l-25.1,53.2L253.9,483.4z"/>
	<path fill="#1C1C1C" d="M418.1,573.9c2.3,0,3.8,1.5,3.8,3.8s-1.5,3.8-3.8,3.8H374c-2.3,0-3.8-1.5-3.8-3.8s1.5-3.8,3.8-3.8H418.1z"
		/>
	<polygon fill="#FFFFFF" points="418.1,560.2 377.1,560.2 395.3,530.6 	"/>
	<path fill="#1C1C1C" d="M418.1,564h-41.1c-2.3,0-3.8-1.5-3.8-3.8c0-0.8,0-1.5,0.8-2.3l19-29.6c0.8-1.5,3-2.3,4.6-0.8
		c0.8,0,0.8,0.8,0.8,0.8l22,29.6c1.5,1.5,0.8,3.8-0.8,5.3C419.7,564,418.9,564,418.1,564L418.1,564L418.1,564z M383.2,557.2h27.4
		l-15.2-19.8L383.2,557.2z"/>
	<path fill="#DC5940" d="M282.1,463.7c-31.2,18.2-25.8,21.3-25.8-15.2s-5.3-33.5,25.8-15.2S313.2,445.4,282.1,463.7z"/>
	<path fill="#1C1C1C" d="M283.6,466.7c-4.6,2.3-8.4,4.6-11.4,6.8c-9.1,5.3-13.7,8.4-16.7,6.1c-3.8-2.3-3.8-7.6-3-17.5
		c0-3,0-7.6,0-12.9c0-6.1,0-9.9,0-12.9c0-10.6-0.8-16,3-17.5c3.8-2.3,8.4,0.8,16.7,6.1c3,1.5,6.8,3.8,11.4,6.8
		c4.6,3,8.4,4.6,11.4,6.1c9.1,5.3,13.7,7.6,13.7,12.2c0,4.6-4.6,6.8-13.7,12.2C291.9,462.1,288.1,464.4,283.6,466.7L283.6,466.7z
		 M268.4,467.5c3-2.3,6.8-4.6,11.4-6.8l0,0c4.6-3,8.4-4.6,11.4-6.8c6.8-3.8,9.9-5.3,9.9-5.3s-3-1.5-9.9-5.3c-3-1.5-7.6-3.8-11.4-6.8
		c-4.6-2.3-8.4-4.6-11.4-6.8c-6.8-3.8-9.9-6.1-9.9-6.1s0,3.8,0,11.4c0,3.8,0,8.4,0,13.7c0,4.6,0,9.1,0,13.7c0,7.6,0,11.4,0,11.4
		C259.2,473.5,262.3,471.3,268.4,467.5z"/>
	<path fill="#DC5940" d="M329.2,463.7c31.2,18.2,25.8,21.3,25.8-15.2s5.3-33.5-25.8-15.2C297.3,451.5,297.3,445.4,329.2,463.7z"/>
	<path fill="#1C1C1C" d="M330.7,460.6c4.6,2.3,8.4,4.6,11.4,6.8c6.8,3.8,9.9,6.1,9.9,6.1s0-3.8,0-11.4c0-3.8,0-8.4,0-13.7
		c0-4.6,0-9.1,0-13.7c0-7.6,0-11.4,0-11.4s-3,2.3-9.9,6.1c-3,2.3-6.8,4.6-11.4,6.8c-4.6,2.3-8.4,4.6-11.4,6.8
		c-6.8,3.8-9.9,5.3-9.9,5.3s3,1.5,9.9,5.3C322.3,456.1,326.1,457.6,330.7,460.6L330.7,460.6L330.7,460.6z M338.3,473.5
		c-3-1.5-6.8-3.8-11.4-6.8c-4.6-2.3-8.4-4.6-11.4-6.1c-9.1-5.3-13.7-7.6-13.7-12.2c0-4.6,4.6-6.8,13.7-12.2c3-1.5,6.8-3.8,11.4-6.1
		c4.6-2.3,8.4-4.6,11.4-6.8c9.1-5.3,13.7-8.4,16.7-6.1c3.8,2.3,3.8,7.6,3,17.5c0,3,0,7.6,0,12.9c0,6.1,0,9.9,0,12.9
		c0,10.6,0,16-3,17.5C352,481.9,347.4,478.9,338.3,473.5z"/>
	<circle fill="#DC5940" cx="305.6" cy="448.5" r="12.9"/>
	<path fill="#1C1C1C" d="M305.6,431.7c4.6,0,8.4,1.5,11.4,4.6l0,0c3,3,4.6,6.8,4.6,11.4c0,4.6-1.5,8.4-4.6,11.4l0,0
		c-3,3-6.8,4.6-11.4,4.6c-4.6,0-8.4-1.5-11.4-4.6l0,0c-3-3-4.6-6.8-4.6-11.4c0-4.6,1.5-8.4,4.6-11.4l0,0
		C296.5,434,301.1,431.7,305.6,431.7L305.6,431.7z M312.5,441.6c-1.5-1.5-3.8-3-6.8-3c-2.3,0-5.3,0.8-6.8,3l0,0
		c-1.5,1.5-3,3.8-3,6.8c0,2.3,0.8,5.3,3,6.8l0,0c1.5,1.5,3.8,3,6.8,3c2.3,0,5.3-0.8,6.8-3l0,0c1.5-1.5,3-3.8,3-6.8
		C314.7,446.2,314,443.9,312.5,441.6L312.5,441.6z"/>
	<path fill="#A76739" d="M225,183.9h6.1l0,0l0,0c5.3,0,7.6,9.1,7.6,13.7v25.8v16.7c0,14.4-5.3,39.5-22,44.1v-41.8v-45.6
		C217.4,193,219,183.9,225,183.9z"/>
	<path fill="#1C1C1C" d="M225,180.1h6.1h0.8c3.8,0,6.1,2.3,8.4,5.3c2.3,3.8,3,8.4,3,11.4v42.6c0,8.4-2.3,21.3-6.8,31.2
		c-3.8,7.6-9.1,14.4-17.5,16.7c-1.5,0.8-3.8-0.8-4.6-2.3v-0.8l0,0v-86.7c0,0,0,0,0-0.8c0-3,0.8-7.6,3-11.4
		C218.2,182.4,221.2,180.1,225,180.1L225,180.1z M231.1,187.7H225c-0.8,0-1.5,0.8-2.3,1.5c-1.5,2.3-2.3,5.3-2.3,7.6
		c0.8,26.6,0,54.7,0,81.3c3.8-2.3,6.1-6.1,8.4-10.6c4.6-9.1,6.1-19.8,6.1-28.1v-42.6c0-2.3-0.8-5.3-1.5-7.6
		C232.6,188.5,231.9,187.7,231.1,187.7L231.1,187.7z"/>
	<path fill="#A76739" d="M387,177h-6.1c-6.1,0-7.6,9.1-7.6,13.7v25.8v16.7c0,14.4,5.3,39.5,22,44.1v-41.8V190
		C394.6,185.4,393,177,387,177z"/>
	<path fill="#1C1C1C" d="M387,180.1h-6.1l0,0c-0.8,0-1.5,0.8-2.3,2.3c-1.5,2.3-2.3,6.1-2.3,7.6v42.6c0,7.6,1.5,19,6.1,28.1
		c2.3,4.6,5.3,8.4,8.4,10.6V190l0,0c0-2.3-0.8-5.3-2.3-8.4C388.5,180.8,387.7,180.1,387,180.1L387,180.1z M380.9,173.2h6.1
		c3.8,0,6.8,2.3,8.4,5.3c2.3,3.8,3,8.4,3,11.4l0,0v92l-4.6-1.5c-7.6-2.3-13.7-9.1-17.5-16.7c-4.6-9.9-6.8-22-6.8-31.2V190
		c0-3,0.8-7.6,3-11.4C374.8,175.5,377.1,173.2,380.9,173.2L380.9,173.2z"/>
	<path fill="#A76739" d="M310.2,135.2c-37.3,0-76.8,3-79.1,48.7c-1.5,23.6,28.1,27.4,48.7,27.4h60.8c19.8,0,38-5.3,51.7-15.2
		c16.7-11.4,28.1-27.4,30.4-45.6c0-2.3,0.8-4.6,0.8-7.6c0-7.6-1.5-14.4-3.8-20.5c-13.7,8.4-30.4,12.9-48.7,12.9
		C371,135.2,310.2,135.2,310.2,135.2z"/>
	<path fill="#1C1C1C" d="M310.2,139c-18.2,0-37.3,0.8-50.9,6.8c-13.7,6.1-23.6,16.7-24.3,38c-0.8,9.9,5.3,16,13.7,19
		c9.1,3.8,21.3,4.6,31.2,4.6h60.8c9.1,0,18.2-1.5,26.6-3.8c8.4-2.3,16.7-6.1,23.6-10.6c8.4-5.3,14.4-12.2,19.8-19.8
		c4.6-7.6,7.6-15.2,9.1-23.6c0-0.8,0-2.3,0-3s0-2.3,0-3.8c0-3,0-6.8-0.8-9.9c0-2.3-0.8-3.8-1.5-5.3c-6.1,3-12.9,6.1-19.8,7.6
		c-8.4,2.3-17.5,3.8-26.6,3.8H310.2L310.2,139z M256.2,139c15.2-6.8,35-7.6,54-7.6H371c8.4,0,16.7-0.8,24.3-3
		c8.4-2.3,15.2-5.3,22-9.1l3.8-2.3l1.5,3.8c1.5,3.8,2.3,6.8,3,10.6s0.8,7.6,0.8,11.4c0,1.5,0,2.3,0,3.8s0,2.3-0.8,3.8
		c-1.5,9.9-4.6,19-9.9,26.6c-5.3,8.4-12.9,16-22,21.3c-7.6,5.3-16,9.1-25.1,11.4s-18.2,3.8-28.1,3.8h-60.8
		c-10.6,0-23.6-0.8-34.2-5.3c-11.4-4.6-19-12.2-18.2-26.6C228.8,159.6,240.2,146.6,256.2,139z"/>
	<path fill="#1C1C1C" d="M326.9,245.5h39.5c3,0,6.1,1.5,8.4,3.8c2.3,2.3,3.8,5.3,3.8,8.4v21.3c0,3-1.5,6.1-3.8,8.4
		c-2.3,2.3-5.3,3.8-8.4,3.8h-39.5c-3,0-6.1-1.5-8.4-3.8c-2.3-2.3-3.8-5.3-3.8-8.4v-21.3c0-3,1.5-6.1,3.8-8.4l0,0
		C320.1,247,323.1,245.5,326.9,245.5L326.9,245.5z M366.4,253.1h-39.5c-1.5,0-2.3,0.8-3,1.5l0,0c-0.8,0.8-1.5,2.3-1.5,3v21.3
		c0,1.5,0.8,2.3,1.5,3c0.8,0.8,2.3,1.5,3,1.5h39.5c1.5,0,2.3-0.8,3-1.5s1.5-2.3,1.5-3v-21.3c0-1.5-0.8-2.3-1.5-3
		C368.7,253.8,367.2,253.1,366.4,253.1z"/>
	<rect x="210.6" y="245.5" fill="#1C1C1C" width="192.3" height="6.8"/>
	<path fill="#1C1C1C" d="M234.9,176.3c-1.5-1.5-1.5-3.8,0-5.3s3.8-1.5,5.3,0c5.3,5.3,13.7,9.1,23.6,11.4c10.6,2.3,24.3,3,38.8,3
		c2.3,0,3.8,1.5,3.8,3.8c0,2.3-1.5,3.8-3.8,3.8c-15.2,0-28.9-0.8-40.3-3C250.9,186.9,241,183.1,234.9,176.3z"/>
	<path fill="#1C1C1C" d="M228.1,143.6c0-2.3,1.5-3.8,3.8-3.8c2.3,0,3.8,1.5,3.8,3.8v40.3c0,2.3-1.5,3.8-3.8,3.8
		c-0.8,0-1.5,0-2.3-0.8l0,0l-25.1-20.5c-1.5-1.5-1.5-3.8-0.8-5.3c1.5-1.5,3.8-1.5,5.3-0.8l19,16L228.1,143.6z"/>
	<circle fill="#40545A" cx="265.3" cy="272.1" r="10.6"/>
	<path fill="#1C1C1C" d="M265.3,258.4c3.8,0,7.6,1.5,9.9,3.8l0,0c2.3,2.3,3.8,6.1,3.8,9.9s-1.5,7.6-3.8,9.9l0,0
		c-2.3,2.3-6.1,3.8-9.9,3.8s-7.6-1.5-9.9-3.8l0,0c-2.3-2.3-3.8-6.1-3.8-9.9s1.5-7.6,3.8-9.9l0,0
		C257.7,259.9,261.5,258.4,265.3,258.4L265.3,258.4z M269.9,267.5L269.9,267.5c-1.5-1.5-3-2.3-5.3-2.3s-3.8,0.8-5.3,2.3l0,0
		c-1.5,1.5-2.3,3-2.3,5.3c0,2.3,0.8,3.8,2.3,5.3l0,0c1.5,1.5,3,2.3,5.3,2.3s3.8-0.8,5.3-2.3l0,0c1.5-1.5,2.3-3,2.3-5.3
		C272.2,270.6,271.4,268.3,269.9,267.5z"/>
	<circle fill="#40545A" cx="348.2" cy="272.1" r="10.6"/>
	<path fill="#1C1C1C" d="M348.2,265.2c-2.3,0-3.8,0.8-5.3,2.3l0,0c-1.5,1.5-2.3,3-2.3,5.3c0,2.3,0.8,3.8,2.3,5.3l0,0
		c1.5,1.5,3,2.3,5.3,2.3c2.3,0,3.8-0.8,5.3-2.3l0,0c1.5-1.5,2.3-3,2.3-5.3c0-2.3-0.8-3.8-2.3-5.3l0,0
		C352,266,350.5,265.2,348.2,265.2L348.2,265.2z M338.3,262.2c2.3-2.3,6.1-3.8,9.9-3.8s7.6,1.5,9.9,3.8l0,0c2.3,2.3,3.8,6.1,3.8,9.9
		s-1.5,7.6-3.8,9.9l0,0c-2.3,2.3-6.1,3.8-9.9,3.8s-7.6-1.5-9.9-3.8l0,0c-2.3-2.3-3.8-6.1-3.8-9.9
		C333.7,268.3,335.3,264.5,338.3,262.2L338.3,262.2z"/>
	<path fill="#1C1C1C" d="M246.3,245.5h39.5c3,0,6.1,1.5,8.4,3.8c2.3,2.3,3.8,5.3,3.8,8.4v21.3c0,3-1.5,6.1-3.8,8.4
		c-2.3,2.3-5.3,3.8-8.4,3.8h-39.5c-3,0-6.1-1.5-8.4-3.8c-2.3-2.3-3.8-5.3-3.8-8.4v-21.3c0-3,1.5-6.1,3.8-8.4l0,0
		C239.5,247,242.5,245.5,246.3,245.5L246.3,245.5z M285.9,253.1h-39.5c-1.5,0-2.3,0.8-3,1.5l0,0c-0.8,0.8-1.5,2.3-1.5,3v21.3
		c0,1.5,0.8,2.3,1.5,3c0.8,0.8,2.3,1.5,3,1.5h39.5c1.5,0,2.3-0.8,3-1.5s1.5-2.3,1.5-3v-21.3c0-1.5-0.8-2.3-1.5-3
		C288.1,253.8,286.6,253.1,285.9,253.1z"/>
</g>
</svg>
