<?xml version="1.0" encoding="utf-8"?>
<!-- Generator: Adobe Illustrator 18.0.0, SVG Export Plug-In . SVG Version: 6.00 Build 0)  -->
<!DOCTYPE svg PUBLIC "-//W3C//DTD SVG 1.1//EN" "http://www.w3.org/Graphics/SVG/1.1/DTD/svg11.dtd">
<svg version="1.1" id="Layer_1" xmlns="http://www.w3.org/2000/svg" xmlns:xlink="http://www.w3.org/1999/xlink" x="0px" y="0px"
	 viewBox="76 115.5 361.9 491.9" enable-background="new 76 115.5 361.9 491.9" xml:space="preserve">
<g id="Avatar_4">
	<path fill="#40545A" d="M79.8,603.5h354.3V523c0-66.9-59.3-121.6-131.5-121.6h-91.2c-72.2,0-131.5,54.7-131.5,121.6V603.5z"/>
	<path fill="#1C1C1C" d="M82.9,599.7h347.4V523c0-32.7-14.4-61.6-37.3-83.6c-23.6-21.3-55.5-35-90.5-35h-91.2
		c-35,0-67.7,13.7-90.5,35S83.6,490.3,83.6,523v76.8H82.9z M434.1,607.3H79.8c-2.3,0-3.8-1.5-3.8-3.8V523
		c0-34.2,15.2-66.1,39.5-88.2c24.3-22.8,58.5-36.5,95-36.5h91.2c37.3,0,70.7,13.7,95,36.5c24.3,22.8,39.5,54,39.5,88.2v80.6
		C437.9,605.8,436.4,607.3,434.1,607.3z"/>
	<path fill="#1C1C1C" d="M148.2,496.4c0.8-1.5,3-3,4.6-2.3c1.5,0.8,3,3,2.3,4.6c-2.3,6.1-3.8,12.2-4.6,19
		c-0.8,6.1-1.5,12.9-1.5,19.8v63.9h215.9v-63.9c0-6.8-0.8-12.9-1.5-19.8c-0.8-6.8-3-12.9-4.6-19c-0.8-1.5,0-3.8,2.3-4.6
		c1.5-0.8,3.8,0,4.6,2.3c2.3,6.1,3.8,12.9,5.3,19.8c0.8,6.8,1.5,13.7,1.5,20.5v66.9c0,2.3-1.5,3.8-3.8,3.8H145.2
		c-2.3,0-3.8-1.5-3.8-3.8v-66.9c0-6.8,0.8-13.7,1.5-20.5C144.4,509.3,146,502.4,148.2,496.4z"/>
	<path fill="#FDC27A" d="M218.2,364.1h74.5v46.4c0,17.5-16.7,31.9-37.3,31.9l0,0c-20.5,0-37.3-14.4-37.3-31.9L218.2,364.1
		L218.2,364.1z"/>
	<path fill="#1C1C1C" d="M218.2,360.3h78.3v50.2c0,9.9-4.6,19-12.2,25.1s-17.5,10.6-28.9,10.6c-11.4,0-21.3-3.8-28.9-10.6
		c-7.6-6.8-12.2-15.2-12.2-25.1v-50.2H218.2L218.2,360.3z M289.7,367.9H222v42.6c0,7.6,3.8,14.4,9.9,19.8c6.1,5.3,14.4,8.4,24.3,8.4
		c9.9,0,18.2-3,24.3-8.4c6.1-5.3,9.9-12.2,9.9-19.8v-42.6H289.7z"/>
	<path fill="#1C1C1C" d="M160.4,576.2c-1.5-0.8-2.3-3-0.8-4.6c0.8-1.5,3-2.3,4.6-0.8c10.6,6.8,22,10.6,35,11.4s26.6-1.5,41.1-7.6
		c1.5-0.8,3.8,0,4.6,2.3c0.8,1.5,0,3.8-2.3,4.6c-16,6.1-30.4,8.4-44.1,7.6C184.7,587.6,172.6,583.8,160.4,576.2z"/>
	<path fill="#1C1C1C" d="M347.4,570.1c1.5-0.8,3.8-0.8,4.6,0.8c0.8,1.5,0.8,3.8-0.8,4.6c-11.4,7.6-24.3,11.4-38,12.2
		c-13.7,0.8-28.1-1.5-44.1-7.6c-1.5-0.8-3-3-2.3-4.6c0.8-1.5,3-3,4.6-2.3c14.4,5.3,28.1,7.6,41.1,7.6
		C324.6,580.7,336.8,576.9,347.4,570.1z"/>
	<rect x="79.8" y="558.7" fill="#FDC27A" width="65.4" height="44.9"/>
	<path fill="#1C1C1C" d="M79.8,554.9h65.4c2.3,0,3.8,1.5,3.8,3.8v44.9c0,2.3-1.5,3.8-3.8,3.8H79.8c-2.3,0-3.8-1.5-3.8-3.8v-44.9
		C76,556.4,77.5,554.9,79.8,554.9L79.8,554.9z M141.4,562.5H82.9v38h58.5V562.5z"/>
	<rect x="368.7" y="558.7" fill="#FDC27A" width="65.4" height="44.9"/>
	<path fill="#1C1C1C" d="M368.7,554.9h65.4c2.3,0,3.8,1.5,3.8,3.8v44.9c0,2.3-1.5,3.8-3.8,3.8h-65.4c-2.3,0-3.8-1.5-3.8-3.8v-44.9
		C364.9,556.4,366.4,554.9,368.7,554.9L368.7,554.9z M430.3,562.5h-57.8v38h58.5v-38H430.3z"/>
	<path fill="#DC5940" d="M293.5,421.8c0-56.3,0.8-93.5,44.9-99.6c22.8,12.9,26.6,38.8,26.6,65.4v56.3c0,25.8-7.6,50.2-19.8,69.2
		c-14.4,22-35.7,37.3-59.3,40.3c-3,0.8-6.1,0.8-9.1,0.8c-9.1,0-18.2-1.5-26.6-5.3c35-13.7,44.1-46.4,44.1-70.7v-56.3H293.5z"/>
	<path fill="#1C1C1C" d="M289.7,421.8c0-28.9,0-52.5,6.1-69.9c6.1-18.2,18.2-29.6,41.8-33.5c0.8,0,1.5,0,2.3,0.8
		c12.2,6.8,19,17.5,22.8,29.6c3.8,12.2,4.6,25.1,4.6,38.8v56.3c0,12.9-1.5,25.8-5.3,37.3c-3.8,12.2-8.4,23.6-15.2,33.5
		c-7.6,11.4-16.7,21.3-27.4,28.9c-10.6,6.8-22,11.4-34.2,13.7c-1.5,0-3,0.8-5.3,0.8c-1.5,0-3,0-5.3,0c-4.6,0-9.9-0.8-14.4-1.5
		c-4.6-0.8-9.1-2.3-13.7-3.8c-1.5-0.8-3-3-2.3-4.6c0.8-0.8,1.5-1.5,2.3-2.3c14.4-5.3,24.3-14.4,30.4-25.1
		c8.4-13.7,11.4-29.6,11.4-42.6v-56.3H289.7z M302.6,354.9c-5.3,16.7-6.1,39.5-6.1,67.7v56.3c0,14.4-3,31.2-12.2,46.4
		c-6.1,9.1-13.7,17.5-25.8,23.6c1.5,0,3,0.8,4.6,0.8c4.6,0.8,8.4,1.5,12.9,1.5c1.5,0,3,0,4.6,0c1.5,0,3,0,4.6-0.8
		c11.4-1.5,22-6.1,31.2-12.2c9.9-6.8,18.2-16,25.8-26.6c6.1-9.1,10.6-19.8,14.4-31.2c3-11.4,4.6-22.8,4.6-35.7v-56.3
		c0-12.9-0.8-25.1-4.6-36.5c-3-9.9-9.1-19-19-25.1C317.8,329.1,307.9,339,302.6,354.9z"/>
	<path fill="#DC5940" d="M242.5,258.4c0-61.6-22.8-93.5-73-100.4c-25.8,0-39.5,27.4-39.5,56.3v61.6c0,28.1,8.4,54.7,22,75.3
		c16.7,24.3,40.3,40.3,67.7,44.1c3.8,0.8,6.8,0.8,10.6,0.8c10.6,0,21.3-2.3,30.4-6.1c-12.2-19.8-19-44.1-19-69.9v-61.6H242.5z"/>
	<path fill="#1C1C1C" d="M239.5,258.4c0-29.6-5.3-52.5-16.7-68.4c-11.4-16-28.9-25.1-52.5-28.1c-10.6,0-19,5.3-25.1,13.7
		c-6.8,9.9-10.6,24.3-10.6,38.8v61.6c0,13.7,2.3,26.6,5.3,38.8c3.8,12.9,9.1,24.3,16,34.2c8.4,12.2,18.2,22,29.6,28.9
		c10.6,6.8,22.8,11.4,35.7,13.7c1.5,0,3,0,5.3,0.8c1.5,0,3,0,5.3,0c5.3,0,9.9-0.8,15.2-1.5c3.8-0.8,6.8-1.5,10.6-3
		c-5.3-9.1-9.1-19.8-12.2-30.4c-3-12.2-5.3-24.3-5.3-38v-60.8H239.5z M228.1,185.4c12.2,17.5,18.2,41.1,18.2,73V320
		c0,12.2,1.5,24.3,4.6,35.7c3,11.4,7.6,22.8,13.7,32.7l2.3,3.8l-3.8,1.5c-5.3,2.3-10.6,3.8-16,4.6c-5.3,0.8-10.6,1.5-16,1.5
		c-1.5,0-3.8,0-5.3,0c-1.5,0-3.8,0-5.3-0.8c-13.7-1.5-27.4-6.8-38.8-14.4c-12.2-7.6-22.8-18.2-31.2-31.2
		c-7.6-10.6-12.9-22.8-17.5-36.5c-3.8-12.9-6.1-26.6-6.1-41.1v-61.6c0-16,3.8-31.2,12.2-42.6c6.8-9.9,17.5-16.7,31.2-16.7l0,0l0,0
		C196.1,158,215.2,167.9,228.1,185.4z"/>
	<path fill="#FDC27A" d="M218.2,364.1h74.5v46.4c0,17.5-16.7,31.9-37.3,31.9l0,0c-20.5,0-37.3-14.4-37.3-31.9L218.2,364.1
		L218.2,364.1z"/>
	<path fill="#1C1C1C" d="M218.2,360.3h78.3v50.2c0,9.9-4.6,19-12.2,25.1s-17.5,10.6-28.9,10.6c-11.4,0-21.3-3.8-28.9-10.6
		c-7.6-6.8-12.2-15.2-12.2-25.1v-50.2H218.2L218.2,360.3z M289.7,367.9H222v42.6c0,7.6,3.8,14.4,9.9,19.8c6.1,5.3,14.4,8.4,24.3,8.4
		c9.9,0,18.2-3,24.3-8.4c6.1-5.3,9.9-12.2,9.9-19.8v-42.6H289.7z"/>
	<path fill="#FDC27A" d="M257.7,166.4L257.7,166.4c48.7,0,88.2,39.5,88.2,88.2v32.7c0,48.7-39.5,88.2-88.2,88.2l0,0
		c-48.7,0-88.2-39.5-88.2-88.2v-32.7C168.8,205.9,209.1,166.4,257.7,166.4z"/>
	<path fill="#1C1C1C" d="M257.7,162.6c25.1,0,48.7,10.6,64.6,27.4c16.7,16.7,27.4,39.5,27.4,64.6v32.7c0,25.1-10.6,48.7-27.4,64.6
		c-16.7,16.7-39.5,27.4-64.6,27.4s-48.7-10.6-64.6-27.4c-16.7-16.7-27.4-39.5-27.4-64.6v-32.7c0-25.1,10.6-48.7,27.4-64.6
		C209.1,173.2,231.9,162.6,257.7,162.6L257.7,162.6z M257.7,170.2c-23.6,0-44.9,9.9-60.1,25.1c-15.2,15.2-25.1,36.5-25.1,60.1V288
		c0,23.6,9.9,44.9,25.1,60.1c15.2,15.2,36.5,25.1,60.1,25.1s44.9-9.9,60.1-25.1c15.2-15.2,25.1-36.5,25.1-60.1v-32.7
		c0-23.6-9.9-44.9-25.1-60.1C301.8,179.3,280.5,170.2,257.7,170.2z"/>
	<path fill="#FDC27A" d="M147.5,264.5v2.3l0,0c0,12.9,9.1,23.6,22,25.8v-25.8v-23.6C165.7,253.1,160.4,261.4,147.5,264.5z"/>
	<path fill="#1C1C1C" d="M143.7,266.8v-5.3l3-0.8c6.1-1.5,9.9-3.8,12.9-6.8c3-3,4.6-7.6,6.1-11.4l6.8-22v76.8l-4.6-0.8
		c-6.8-1.5-12.9-5.3-17.5-10.6S143.7,274.4,143.7,266.8L143.7,266.8z M150.5,267.5c0,5.3,2.3,9.9,5.3,13.7c2.3,3,5.3,5.3,9.1,6.8
		v-29.6l-0.8,0.8C161.2,263,156.6,265.2,150.5,267.5z"/>
	<path fill="#1C1C1C" d="M259.2,301c0,2.3-1.5,3.8-3.8,3.8c-2.3,0-3.8-1.5-3.8-3.8c0-6.1,0-9.1,1.5-11.4c2.3-3,4.6-3,9.9-3
		c2.3,0,3-0.8,3.8-2.3c0-0.8,0-1.5,0-2.3c0-0.8,0-1.5,0-2.3c-0.8-1.5-1.5-2.3-2.3-2.3c-2.3,0-3.8-1.5-3.8-3.8v-27.4
		c0-2.3,1.5-3.8,3.8-3.8s3.8,1.5,3.8,3.8v24.3c3,0.8,4.6,3.8,5.3,6.1l0,0c0.8,1.5,0.8,3,0.8,4.6c0,1.5,0,3-0.8,4.6
		c-1.5,3.8-4.6,6.8-10.6,6.8c-3,0-3.8,0-3.8,0C259.2,294.1,259.2,296.4,259.2,301z"/>
	<path fill="#FDC27A" d="M345.9,240.9L345.9,240.9c0.8-3.8,3.8-6.8,7.6-6.8h6.1c4.6,0,7.6,3.8,7.6,7.6v25.1l0,0
		c0,12.9-9.1,23.6-22,25.8v-25.8v-25.1v-0.8H345.9z"/>
	<path fill="#1C1C1C" d="M349.7,240.9L349.7,240.9v46.4c3.8-1.5,6.8-3.8,9.1-6.8c3-3.8,5.3-9.1,5.3-14.4v-25.1c0-1.5-0.8-2.3-1.5-3
		c-0.8-0.8-1.5-1.5-3-1.5h-6.1c-0.8,0-2.3,0.8-3,0.8C349.7,239.4,349.7,240.1,349.7,240.9L349.7,240.9z M343.6,236.3
		c0.8-1.5,1.5-2.3,3-3.8c2.3-1.5,4.6-3,7.6-3h6.1c3,0,6.1,1.5,8.4,3c2.3,2.3,3,4.6,3,8.4v25.8c0,7.6-2.3,13.7-6.8,19
		s-10.6,9.1-17.5,10.6l-5.3,0.8v-60.8H343.6z"/>
	<path fill="#DC5940" d="M253.9,217.3c-45.6,0-79.8-15.2-84.4-59.3c7.6-24.3,31.2-39.5,51.7-39.5h45.6c21.3,0,40.3,7.6,55.5,19.8
		c17.5,14.4,29.6,35.7,32.7,59.3c0,3,0.8,6.1,0.8,9.1c0,9.1-1.5,18.2-4.6,26.6c-14.4-10.6-32.7-16.7-51.7-16.7h-45.6V217.3z"/>
	<path fill="#1C1C1C" d="M253.9,221.1c-23.6,0-44.1-3.8-59.3-13.7c-16-9.9-25.8-25.8-28.9-48.7c0-0.8,0-0.8,0-1.5
		c3.8-12.2,11.4-22,21.3-29.6c10.6-7.6,22.8-12.2,34.2-12.2h45.6c10.6,0,21.3,1.5,30.4,5.3c9.9,3.8,19,8.4,27.4,15.2
		c9.1,7.6,17.5,16.7,22.8,27.4c5.3,10.6,9.1,22,10.6,34.2c0,1.5,0,3,0.8,4.6c0,1.5,0,3,0,4.6c0,4.6-0.8,9.9-0.8,14.4
		c-0.8,4.6-1.5,9.1-3,13.7c-0.8,1.5-2.3,3-4.6,2.3c0,0-0.8,0-0.8-0.8c-6.8-5.3-15.2-9.1-23.6-12.2c-8.4-3-16.7-3.8-25.8-3.8h-46.4
		V221.1z M198.4,201.4c14.4,9.1,33.5,12.2,55.5,12.2h45.6c9.9,0,19,1.5,28.1,4.6c7.6,2.3,14.4,6.1,21.3,9.9c0.8-2.3,1.5-5.3,1.5-8.4
		c0.8-4.6,0.8-8.4,0.8-12.9c0-1.5,0-3,0-4.6c0-1.5,0-3,0-4.6c-1.5-11.4-4.6-22-9.9-31.2c-5.3-9.9-12.9-18.2-21.3-25.8
		c-7.6-6.1-16-10.6-25.1-13.7c-9.1-3-18.2-4.6-28.1-4.6h-45.6c-9.9,0-21.3,3.8-29.6,10.6c-8.4,6.1-15.2,15.2-18.2,25.1
		C175.6,178.6,184.7,192.3,198.4,201.4z"/>
	<path fill="#FFFFFF" d="M286.6,313.9c-2.3,14.4-16,25.8-31.2,25.8l0,0c-15.2,0-28.1-11.4-31.2-25.8H286.6z"/>
	<path fill="#1C1C1C" d="M290.4,315.4c-1.5,8.4-6.1,15.2-12.2,20.5c-6.1,5.3-13.7,8.4-22.8,8.4c-8.4,0-16.7-3-22.8-8.4
		c-6.1-5.3-10.6-12.2-12.2-20.5c0-2.3,0.8-3.8,3-3.8h0.8h62.3C288.9,311.6,290.4,313.1,290.4,315.4
		C290.4,314.7,290.4,314.7,290.4,315.4L290.4,315.4z M273.7,329.9c3.8-3,6.8-7.6,8.4-12.2h-53.2c1.5,4.6,4.6,9.1,8.4,12.2
		c4.6,3.8,11.4,6.8,18.2,6.8S269.1,334.4,273.7,329.9z"/>
	<path fill="#1C1C1C" d="M333,393.7c0,2.3-1.5,3.8-3.8,3.8c-2.3,0-3.8-1.5-3.8-3.8v-56.3c0-2.3,1.5-3.8,3.8-3.8
		c2.3,0,3.8,1.5,3.8,3.8V393.7z"/>
	<path fill="#1C1C1C" d="M321.6,376.2c0,2.3-1.5,3.8-3.8,3.8c-2.3,0-3.8-1.5-3.8-3.8v-24.3c0-2.3,1.5-3.8,3.8-3.8
		c2.3,0,3.8,1.5,3.8,3.8V376.2z"/>
	<path fill="#1C1C1C" d="M250.1,552.6c-2.3,0-3.8-1.5-3.8-3c0-2.3,1.5-3.8,3-3.8c25.1-3,39.5-10.6,47.9-22
		c8.4-11.4,10.6-26.6,11.4-43.3c0-2.3,1.5-3.8,3.8-3.8c2.3,0,3.8,1.5,3.8,3.8c-0.8,19-3.8,35-12.9,47.9
		C293.5,540.4,277.5,549.6,250.1,552.6z"/>
	<path fill="#1C1C1C" d="M177.9,138.3c-0.8-2.3,0.8-3.8,3-4.6s3.8,0.8,4.6,3c5.3,23.6,13.7,37.3,24.3,45.6
		c10.6,8.4,22.8,10.6,37.3,9.9c2.3,0,3.8,1.5,3.8,3.8s-1.5,3.8-3.8,3.8c-15.2,0-29.6-2.3-41.8-11.4
		C193.1,178.6,184,163.4,177.9,138.3z"/>
	<path fill="#1C1C1C" d="M354.3,233.3c0,2.3-0.8,3.8-3,3.8c-2.3,0-3.8-0.8-3.8-3c-1.5-6.1-3-11.4-6.1-15.2c-3-3.8-6.8-6.8-11.4-9.1
		c-1.5-0.8-2.3-3-1.5-4.6c0.8-1.5,3-2.3,4.6-1.5c6.1,2.3,10.6,6.1,13.7,11.4C350.5,220.4,353.5,226.5,354.3,233.3z"/>
	<path fill="#1C1C1C" d="M186.3,199.1c1.5-0.8,3.8-0.8,4.6,1.5c0.8,1.5,0.8,3.8-1.5,4.6c-9.9,6.1-12.2,16.7-14.4,28.1
		c-4.6,19-8.4,38-44.9,35.7c-2.3,0-3.8-1.5-3-3.8c0-2.3,1.5-3.8,3.8-3c30.4,1.5,34.2-14.4,38-30.4
		C171.1,218.9,174.1,206.7,186.3,199.1z"/>
	<path fill="#1C1C1C" d="M171.1,167.9c1.5-0.8,3.8,0.8,4.6,2.3c0.8,1.5-0.8,3.8-2.3,4.6c-4.6,1.5-9.1,4.6-12.9,7.6
		c-3.8,3.8-6.8,9.1-9.1,14.4c-0.8,1.5-3,3-4.6,2.3c-2.3-0.8-3-3-2.3-4.6c3-6.8,6.1-12.9,10.6-16.7
		C159.7,172.5,165,169.4,171.1,167.9z"/>
	<path fill="#1C1C1C" d="M257.7,170.2c-2.3,0-3.8-1.5-3.8-3c0-2.3,1.5-3.8,3-3.8c12.2-0.8,22.8-0.8,31.9,0c9.9,0.8,18.2,3,25.8,5.3
		c1.5,0.8,3,3,2.3,4.6c-0.8,1.5-3,3-4.6,2.3c-6.8-2.3-14.4-3.8-23.6-5.3C279.8,169.4,269.1,169.4,257.7,170.2z"/>
	<path fill="#1C1C1C" d="M274.4,154.2c-2.3,0-3.8-1.5-3.8-3.8c0-2.3,1.5-3.8,3.8-3.8c4.6,0,9.1,0.8,13.7,0.8
		c4.6,0.8,8.4,1.5,12.2,2.3c2.3,0.8,3,2.3,3,4.6c-0.8,2.3-2.3,3-4.6,3c-3.8-0.8-7.6-1.5-11.4-2.3C282.8,155,279,154.2,274.4,154.2z"
		/>
	<path fill="#F2B264" d="M215.9,225.7c16.7,0,31.2,13.7,31.2,31.2c0,16.7-13.7,31.2-31.2,31.2c-16.7,0-31.2-13.7-31.2-31.2
		S198.4,225.7,215.9,225.7L215.9,225.7z M298.8,225.7c16.7,0,31.2,13.7,31.2,31.2c0,16.7-13.7,31.2-31.2,31.2
		c-16.7,0-31.2-13.7-31.2-31.2C268.4,239.4,282.1,225.7,298.8,225.7z"/>
	<path fill="#1C1C1C" d="M215.9,221.9c9.9,0,18.2,3.8,24.3,9.9c6.1,6.1,9.9,15.2,9.9,24.3c0,9.9-3.8,18.2-9.9,24.3
		c-6.1,6.1-15.2,9.9-24.3,9.9s-18.2-3.8-24.3-9.9c-6.1-6.1-9.9-15.2-9.9-24.3c0-9.9,3.8-18.2,9.9-24.3
		C197.7,225.7,206,221.9,215.9,221.9L215.9,221.9z M234.9,237.1c-5.3-5.3-12.2-8.4-19-8.4c-7.6,0-14.4,3-19,8.4
		c-5.3,5.3-8.4,12.2-8.4,19c0,7.6,3,14.4,8.4,19c5.3,5.3,12.2,8.4,19,8.4c7.6,0,14.4-3,19-8.4c5.3-5.3,8.4-12.2,8.4-19
		C243.3,249.3,240.2,242.4,234.9,237.1L234.9,237.1z M298.8,221.9c9.9,0,18.2,3.8,24.3,9.9c6.1,6.1,9.9,15.2,9.9,24.3
		c0,9.9-3.8,18.2-9.9,24.3c-6.1,6.1-15.2,9.9-24.3,9.9c-9.9,0-18.2-3.8-24.3-9.9c-6.1-6.1-9.9-15.2-9.9-24.3
		c0-9.9,3.8-18.2,9.9-24.3C280.5,225.7,289.7,221.9,298.8,221.9L298.8,221.9z M318.5,237.1c-5.3-5.3-12.2-8.4-19-8.4
		c-7.6,0-14.4,3-19,8.4c-5.3,5.3-8.4,12.2-8.4,19c0,7.6,3,14.4,8.4,19c5.3,5.3,12.2,8.4,19,8.4c7.6,0,14.4-3,19-8.4
		c5.3-5.3,8.4-12.2,8.4-19C326.1,249.3,323.1,242.4,318.5,237.1z"/>
	<path fill="#1C1C1C" d="M259.2,301c0,2.3-1.5,3.8-3.8,3.8c-2.3,0-3.8-1.5-3.8-3.8c0-6.1,0-9.1,1.5-11.4c2.3-3,4.6-3,9.9-3
		c2.3,0,3-0.8,3.8-2.3c0-0.8,0-1.5,0-2.3c0-0.8,0-1.5,0-2.3c-0.8-1.5-1.5-2.3-2.3-2.3c-2.3,0-3.8-1.5-3.8-3.8v-27.4
		c0-2.3,1.5-3.8,3.8-3.8s3.8,1.5,3.8,3.8v24.3c3,0.8,4.6,3.8,5.3,6.1l0,0c0.8,1.5,0.8,3,0.8,4.6c0,1.5,0,3-0.8,4.6
		c-1.5,3.8-4.6,6.8-10.6,6.8c-3,0-3.8,0-3.8,0C259.2,294.1,259.2,296.4,259.2,301z"/>
	<circle fill="#40545A" cx="215.9" cy="256.9" r="10.6"/>
	<path fill="#1C1C1C" d="M215.9,242.4c3.8,0,7.6,1.5,9.9,3.8l0,0c2.3,2.3,3.8,6.1,3.8,9.9s-1.5,7.6-3.8,9.9l0,0
		c-2.3,2.3-6.1,3.8-9.9,3.8s-7.6-1.5-9.9-3.8l0,0c-2.3-2.3-3.8-6.1-3.8-9.9s1.5-7.6,3.8-9.9l0,0C208.3,244,212.1,242.4,215.9,242.4
		L215.9,242.4z M220.5,251.6L220.5,251.6c-1.5-1.5-3-2.3-5.3-2.3s-3.8,0.8-5.3,2.3l0,0c-1.5,1.5-2.3,3-2.3,5.3
		c0,2.3,0.8,3.8,2.3,5.3l0,0c1.5,1.5,3,2.3,5.3,2.3c2.3,0,3.8-0.8,5.3-2.3l0,0c1.5-1.5,2.3-3,2.3-5.3
		C222.8,254.6,222,253.1,220.5,251.6z"/>
	<circle fill="#40545A" cx="298.8" cy="256.9" r="10.6"/>
	<path fill="#1C1C1C" d="M298.8,250c-2.3,0-3.8,0.8-5.3,2.3l0,0c-1.5,1.5-2.3,3-2.3,5.3c0,2.3,0.8,3.8,2.3,5.3l0,0
		c1.5,1.5,3,2.3,5.3,2.3s3.8-0.8,5.3-2.3l0,0c1.5-1.5,2.3-3,2.3-5.3s-0.8-3.8-2.3-5.3l0,0C302.6,250.8,301.1,250,298.8,250
		L298.8,250z M288.9,247c2.3-2.3,6.1-3.8,9.9-3.8s7.6,1.5,9.9,3.8l0,0c2.3,2.3,3.8,6.1,3.8,9.9s-1.5,7.6-3.8,9.9l0,0
		c-2.3,2.3-6.1,3.8-9.9,3.8s-7.6-1.5-9.9-3.8l0,0c-2.3-2.3-3.8-6.1-3.8-9.9C285.1,253.1,286.6,249.3,288.9,247L288.9,247z"/>
	<path fill="#1C1C1C" d="M246.3,247c4.6-3,9.1-4.6,13.7-4.6c4.6,0.8,8.4,3,11.4,6.8l-5.3,4.6c-2.3-3-4.6-3.8-6.8-4.6
		c-2.3,0-5.3,0.8-9.1,3L246.3,247z"/>
</g>
</svg>
