<?xml version="1.0" encoding="utf-8"?>
<!-- Generator: Adobe Illustrator 18.0.0, SVG Export Plug-In . SVG Version: 6.00 Build 0)  -->
<!DOCTYPE svg PUBLIC "-//W3C//DTD SVG 1.1//EN" "http://www.w3.org/Graphics/SVG/1.1/DTD/svg11.dtd">
<svg version="1.1" id="Layer_1" xmlns="http://www.w3.org/2000/svg" xmlns:xlink="http://www.w3.org/1999/xlink" x="0px" y="0px"
	 viewBox="0 0 47.6 62.7" enable-background="new 0 0 47.6 62.7" xml:space="preserve">
<g id="Avatar_13">
	<path fill-rule="evenodd" clip-rule="evenodd" fill="#FDC27A" d="M0.5,62.3h46.6V51.7c0-8.8-7.8-16-17.3-16h-12
		c-9.5,0-17.3,7.2-17.3,16V62.3z"/>
	<path fill-rule="evenodd" clip-rule="evenodd" fill="#1C1C1C" d="M0.9,61.8h45.7V51.7c0-4.3-1.9-8.1-4.9-11
		c-3.1-2.8-7.3-4.6-11.9-4.6h-12c-4.6,0-8.9,1.8-11.9,4.6c-3,2.8-4.9,6.7-4.9,11V61.8L0.9,61.8z M47.1,62.7H0.5
		c-0.3,0-0.5-0.2-0.5-0.5V51.7C0,47.1,2,43,5.2,40c3.2-3,7.7-4.8,12.5-4.8h12c4.9,0,9.3,1.8,12.5,4.8c3.2,3,5.2,7.1,5.2,11.6v10.6
		C47.6,62.5,47.4,62.7,47.1,62.7z"/>
	<path fill-rule="evenodd" clip-rule="evenodd" fill="#1C1C1C" d="M9.5,48.1c0.1-0.2,0.4-0.4,0.6-0.3c0.2,0.1,0.4,0.4,0.3,0.6
		c-0.3,0.8-0.5,1.6-0.6,2.5c-0.1,0.8-0.2,1.7-0.2,2.6v8.4H38v-8.4c0-0.9-0.1-1.7-0.2-2.6c-0.1-0.9-0.4-1.7-0.6-2.5
		c-0.1-0.2,0-0.5,0.3-0.6c0.2-0.1,0.5,0,0.6,0.3c0.3,0.8,0.5,1.7,0.7,2.6c0.1,0.9,0.2,1.8,0.2,2.7v8.8c0,0.3-0.2,0.5-0.5,0.5H9.1
		c-0.3,0-0.5-0.2-0.5-0.5v-8.8c0-0.9,0.1-1.8,0.2-2.7C9,49.8,9.2,49,9.5,48.1z"/>
	<path fill-rule="evenodd" clip-rule="evenodd" fill="#A76739" d="M18.7,30.8h9.8v6.1c0,2.3-2.2,4.2-4.9,4.2h0
		c-2.7,0-4.9-1.9-4.9-4.2V30.8z"/>
	<path fill-rule="evenodd" clip-rule="evenodd" fill="#1C1C1C" d="M18.7,30.3H29v6.6c0,1.3-0.6,2.5-1.6,3.3c-1,0.8-2.3,1.4-3.8,1.4
		c-1.5,0-2.8-0.5-3.8-1.4c-1-0.9-1.6-2-1.6-3.3v-6.6H18.7L18.7,30.3z M28.1,31.2h-8.9v5.6c0,1,0.5,1.9,1.3,2.6
		c0.8,0.7,1.9,1.1,3.2,1.1c1.2,0,2.4-0.4,3.2-1.1c0.8-0.7,1.3-1.6,1.3-2.6V31.2z"/>
	<path fill-rule="evenodd" clip-rule="evenodd" fill="#A76739" d="M23.9,0.5L23.9,0.5c6.4,0,11.6,5.2,11.6,11.6v8.6
		c0,6.4-5.2,11.6-11.6,11.6h0c-6.4,0-11.6-5.2-11.6-11.6v-8.6C12.2,5.7,17.5,0.5,23.9,0.5z"/>
	<path fill-rule="evenodd" clip-rule="evenodd" fill="#1C1C1C" d="M23.9,0c3.3,0,6.4,1.4,8.5,3.6c2.2,2.2,3.6,5.2,3.6,8.5v8.6
		c0,3.3-1.4,6.4-3.6,8.5c-2.2,2.2-5.2,3.6-8.5,3.6c-3.3,0-6.4-1.4-8.5-3.6c-2.2-2.2-3.6-5.2-3.6-8.5v-8.6c0-3.3,1.4-6.4,3.6-8.5
		C17.5,1.4,20.5,0,23.9,0L23.9,0z M31.7,4.2c-2-2-4.8-3.3-7.9-3.3c-3.1,0-5.9,1.3-7.9,3.3c-2,2-3.3,4.8-3.3,7.9v8.6
		c0,3.1,1.3,5.9,3.3,7.9c2,2,4.8,3.3,7.9,3.3c3.1,0,5.9-1.3,7.9-3.3s3.3-4.8,3.3-7.9v-8.6C35,9,33.8,6.2,31.7,4.2z"/>
	<path fill-rule="evenodd" clip-rule="evenodd" fill="#40545A" d="M23.9,0.5L23.9,0.5c6.4,0,11.6,5.2,11.6,11.6v5.4h-2.1v-3.8
		c0.1-6.4-3.3-9.3-9.5-6.2c-6.2-3.1-9.6-0.2-9.5,6.2v3.8h-2.2v-5.4C12.2,5.7,17.5,0.5,23.9,0.5z"/>
	<path fill-rule="evenodd" clip-rule="evenodd" fill="#1C1C1C" d="M23.9,0c3.3,0,6.4,1.4,8.5,3.6c2.2,2.2,3.6,5.2,3.6,8.5V18h-3
		v-4.3l0,0c0-1.9-0.3-3.5-0.8-4.6c-0.4-0.7-0.9-1.3-1.5-1.7c-0.6-0.4-1.3-0.6-2.2-0.6c-1.2,0-2.7,0.4-4.3,1.2L23.9,8l-0.2-0.1
		c-1.7-0.8-3.1-1.2-4.3-1.2c-0.8,0-1.6,0.2-2.2,0.6c-0.6,0.4-1.1,1-1.5,1.7c-0.6,1.2-0.9,2.7-0.8,4.6l0,0V18h-3.1v-5.9
		c0-3.3,1.4-6.4,3.6-8.5C17.5,1.4,20.5,0,23.9,0L23.9,0z M23.9,0.9c-3.1,0-5.9,1.3-7.9,3.3c-2,2-3.3,4.8-3.3,7.9V17h1.2v-3.4h0
		c0-2.1,0.3-3.8,0.9-5.1C15.3,7.7,16,7,16.7,6.5c0.8-0.5,1.6-0.7,2.7-0.8c1.3,0,2.8,0.4,4.5,1.2c1.7-0.8,3.2-1.2,4.5-1.2
		c1,0,1.9,0.3,2.7,0.8C31.9,7,32.5,7.7,33,8.6c0.7,1.3,1,3,0.9,5.1h0V17H35v-4.9c0-3.1-1.3-5.9-3.3-7.9C29.7,2.2,26.9,0.9,23.9,0.9z
		"/>
	<path fill-rule="evenodd" clip-rule="evenodd" fill="#FFFFFF" d="M27.7,24.2c-0.3,1.9-2,3.4-4.1,3.4l0,0c-2,0-3.7-1.5-4.1-3.4H27.7
		z"/>
	<path fill-rule="evenodd" clip-rule="evenodd" fill="#1C1C1C" d="M28.2,24.3c-0.2,1.1-0.8,2-1.6,2.7c-0.8,0.7-1.8,1.1-3,1.1
		c-1.1,0-2.2-0.4-3-1.1c-0.8-0.7-1.4-1.6-1.6-2.7c0-0.3,0.1-0.5,0.4-0.5c0,0,0.1,0,0.1,0l8.2,0c0.3,0,0.5,0.2,0.5,0.5
		C28.2,24.2,28.2,24.3,28.2,24.3L28.2,24.3z M26,26.3c0.5-0.4,0.9-1,1.1-1.6h-7c0.2,0.6,0.6,1.2,1.1,1.6c0.6,0.5,1.5,0.9,2.4,0.9
		C24.5,27.2,25.4,26.8,26,26.3z"/>
	<path fill-rule="evenodd" clip-rule="evenodd" fill="#1C1C1C" d="M15.8,14.1c-0.2,0.2-0.5,0.2-0.7,0c-0.2-0.2-0.2-0.5,0-0.7
		c0.4-0.4,0.9-0.8,1.5-1l0,0c0.5-0.2,1.1-0.3,1.7-0.3c0.6,0,1.2,0.1,1.7,0.3l0,0c0.6,0.2,1.1,0.6,1.5,1c0.2,0.2,0.2,0.5,0,0.7
		c-0.2,0.2-0.5,0.2-0.7,0c-0.3-0.3-0.7-0.6-1.2-0.8c-0.4-0.2-0.9-0.3-1.4-0.3c-0.5,0-0.9,0.1-1.4,0.3l0,0
		C16.6,13.5,16.2,13.8,15.8,14.1L15.8,14.1z M26.8,14.1c-0.2,0.2-0.5,0.2-0.7,0c-0.2-0.2-0.2-0.5,0-0.7c0.4-0.4,0.9-0.8,1.5-1l0,0
		c0.5-0.2,1.1-0.3,1.7-0.3c0.6,0,1.2,0.1,1.7,0.3l0,0c0.6,0.2,1.1,0.6,1.5,1c0.2,0.2,0.2,0.5,0,0.7c-0.2,0.2-0.5,0.2-0.7,0
		c-0.3-0.3-0.7-0.6-1.2-0.8c-0.4-0.2-0.9-0.3-1.4-0.3c-0.5,0-0.9,0.1-1.4,0.3l0,0C27.5,13.5,27.1,13.8,26.8,14.1z"/>
	<circle fill-rule="evenodd" clip-rule="evenodd" fill="#40545A" cx="18.4" cy="16.6" r="1.4"/>
	<path fill-rule="evenodd" clip-rule="evenodd" fill="#1C1C1C" d="M18.4,14.8c0.5,0,1,0.2,1.3,0.5l0,0c0.3,0.3,0.5,0.8,0.5,1.3
		c0,0.5-0.2,1-0.5,1.3c-0.3,0.3-0.8,0.5-1.3,0.5c-0.5,0-1-0.2-1.3-0.5c-0.3-0.3-0.5-0.8-0.5-1.3c0-0.5,0.2-1,0.5-1.3h0
		C17.4,15,17.9,14.8,18.4,14.8L18.4,14.8z M19.1,16c-0.2-0.2-0.4-0.3-0.7-0.3c-0.3,0-0.5,0.1-0.7,0.3l0,0c-0.2,0.2-0.3,0.4-0.3,0.7
		c0,0.3,0.1,0.5,0.3,0.7c0.2,0.2,0.4,0.3,0.7,0.3c0.3,0,0.5-0.1,0.7-0.3c0.2-0.2,0.3-0.4,0.3-0.7C19.3,16.4,19.2,16.2,19.1,16z"/>
	<circle fill-rule="evenodd" clip-rule="evenodd" fill="#40545A" cx="29.3" cy="16.6" r="1.4"/>
	<path fill-rule="evenodd" clip-rule="evenodd" fill="#1C1C1C" d="M29.3,15.7c-0.3,0-0.5,0.1-0.7,0.3c-0.2,0.2-0.3,0.4-0.3,0.7
		c0,0.3,0.1,0.5,0.3,0.7l0,0c0.2,0.2,0.4,0.3,0.7,0.3c0.3,0,0.5-0.1,0.7-0.3c0.2-0.2,0.3-0.4,0.3-0.7c0-0.3-0.1-0.5-0.3-0.7
		C29.8,15.8,29.6,15.7,29.3,15.7L29.3,15.7z M28,15.3c0.3-0.3,0.8-0.5,1.3-0.5c0.5,0,1,0.2,1.3,0.5l0,0c0.3,0.3,0.5,0.8,0.5,1.3
		c0,0.5-0.2,1-0.5,1.3c-0.3,0.3-0.8,0.5-1.3,0.5c-0.5,0-1-0.2-1.3-0.5l0,0c-0.3-0.3-0.5-0.8-0.5-1.3C27.5,16.1,27.7,15.7,28,15.3z"
		/>
	<path fill-rule="evenodd" clip-rule="evenodd" fill="#A76739" d="M12.2,14.5L12.2,14.5c-0.1-0.5-0.5-0.9-1-0.9h-0.8
		c-0.6,0-1,0.5-1,1V18l0,0c0,1.7,1.2,3.1,2.9,3.4V18v-3.3V14.5z"/>
	<path fill-rule="evenodd" clip-rule="evenodd" fill="#1C1C1C" d="M11.8,14.6L11.8,14.6c0-0.2-0.1-0.3-0.2-0.4
		c-0.1-0.1-0.2-0.1-0.4-0.1h-0.8c-0.2,0-0.3,0.1-0.4,0.2c-0.1,0.1-0.2,0.2-0.2,0.4V18c0,0.7,0.3,1.4,0.7,1.9
		c0.3,0.4,0.7,0.7,1.2,0.9V14.6L11.8,14.6z M12.2,13.5c0.1,0.1,0.3,0.3,0.4,0.5l0.2,0v7.9l-0.6-0.1c-0.9-0.2-1.7-0.7-2.3-1.4
		c-0.6-0.7-0.9-1.6-0.9-2.5v-3.3c0-0.4,0.2-0.8,0.4-1.1c0.3-0.3,0.6-0.4,1.1-0.4h0.8C11.6,13.2,11.9,13.3,12.2,13.5z"/>
	<path fill-rule="evenodd" clip-rule="evenodd" fill="#1C1C1C" d="M24.1,22.5c0,0.3-0.2,0.5-0.5,0.5c-0.3,0-0.5-0.2-0.5-0.5
		c0-0.8,0-1.2,0.2-1.5c0.3-0.4,0.6-0.4,1.3-0.4c0.3,0,0.4-0.1,0.5-0.3c0-0.1,0-0.2,0-0.3c0-0.1,0-0.2,0-0.3
		c-0.1-0.2-0.2-0.3-0.3-0.3c-0.3,0-0.5-0.2-0.5-0.5v-3.6c0-0.3,0.2-0.5,0.5-0.5c0.3,0,0.5,0.2,0.5,0.5v3.2c0.4,0.1,0.6,0.5,0.7,0.8
		c0.1,0.2,0.1,0.4,0.1,0.6c0,0.2,0,0.4-0.1,0.6c-0.2,0.5-0.6,0.9-1.4,0.9c-0.4,0-0.5,0-0.5,0C24.1,21.6,24.1,21.9,24.1,22.5z"/>
	<path fill-rule="evenodd" clip-rule="evenodd" fill="#A76739" d="M35.5,14.5L35.5,14.5c0.1-0.5,0.5-0.9,1-0.9h0.8c0.6,0,1,0.5,1,1
		V18l0,0c0,1.7-1.2,3.1-2.9,3.4V18v-3.3V14.5z"/>
	<path fill-rule="evenodd" clip-rule="evenodd" fill="#1C1C1C" d="M36,14.6L36,14.6l0,6.1c0.5-0.2,0.9-0.5,1.2-0.9
		c0.4-0.5,0.7-1.2,0.7-1.9v-3.3c0-0.2-0.1-0.3-0.2-0.4c-0.1-0.1-0.2-0.2-0.4-0.2h-0.8c-0.1,0-0.3,0.1-0.4,0.1
		C36.1,14.3,36,14.5,36,14.6L36,14.6z M35.2,14c0.1-0.2,0.2-0.3,0.4-0.5c0.3-0.2,0.6-0.4,1-0.4h0.8c0.4,0,0.8,0.2,1.1,0.4
		c0.3,0.3,0.4,0.6,0.4,1.1V18c0,1-0.3,1.8-0.9,2.5c-0.6,0.7-1.4,1.2-2.3,1.4L35,21.9V14L35.2,14z"/>
	<polygon fill-rule="evenodd" clip-rule="evenodd" fill="#DC5940" points="17.2,32.9 23,41.1 18,46.2 14,35.8 	"/>
	<path fill-rule="evenodd" clip-rule="evenodd" fill="#1C1C1C" d="M17.6,32.7l5.8,8.2c0.1,0.2,0.1,0.4,0,0.6l-5,5.1
		c-0.2,0.2-0.5,0.2-0.7,0c0,0-0.1-0.1-0.1-0.2l-4-10.3c-0.1-0.2,0-0.4,0.1-0.5l3.2-2.9C17.1,32.4,17.4,32.4,17.6,32.7
		C17.6,32.6,17.6,32.6,17.6,32.7L17.6,32.7z M22.4,41l-5.3-7.4L14.5,36l3.7,9.4L22.4,41z"/>
	<polygon fill-rule="evenodd" clip-rule="evenodd" fill="#DC5940" points="30,32.9 24.1,41.1 29.2,46.2 33.2,35.8 	"/>
	<path fill-rule="evenodd" clip-rule="evenodd" fill="#1C1C1C" d="M30,33.6L24.7,41l4.2,4.3l3.7-9.4L30,33.6L30,33.6z M23.7,40.8
		l5.8-8.2c0,0,0,0,0-0.1c0.2-0.2,0.5-0.2,0.7,0l3.2,2.9c0.1,0.1,0.2,0.3,0.1,0.5l-4,10.3c0,0.1-0.1,0.1-0.1,0.2
		c-0.2,0.2-0.5,0.2-0.7,0l-5-5.1C23.6,41.3,23.6,41,23.7,40.8z"/>
	<path fill-rule="evenodd" clip-rule="evenodd" fill="#DC5940" d="M24.2,41.1l1.8,1.9c-1.5,1-3,1-4.7,0l1.8-1.8L24.2,41.1z"/>
	<path fill-rule="evenodd" clip-rule="evenodd" fill="#1C1C1C" d="M24.5,40.8l2.2,2.3l-0.5,0.3c-0.8,0.5-1.7,0.8-2.5,0.8
		c-0.9,0-1.8-0.3-2.7-0.8l-0.5-0.3l2.4-2.4l1.5,0L24.5,40.8L24.5,40.8z M25.3,42.8L24,41.6l-0.7,0l-1.2,1.3c0.6,0.3,1.1,0.4,1.7,0.4
		C24.2,43.2,24.8,43.1,25.3,42.8z"/>
</g>
</svg>
