<?xml version="1.0" encoding="utf-8"?>
<!-- Generator: Adobe Illustrator 18.0.0, SVG Export Plug-In . SVG Version: 6.00 Build 0)  -->
<!DOCTYPE svg PUBLIC "-//W3C//DTD SVG 1.1//EN" "http://www.w3.org/Graphics/SVG/1.1/DTD/svg11.dtd">
<svg version="1.1" id="Layer_1" xmlns="http://www.w3.org/2000/svg" xmlns:xlink="http://www.w3.org/1999/xlink" x="0px" y="0px"
	 viewBox="0 0 47.6 70.5" enable-background="new 0 0 47.6 70.5" xml:space="preserve">
<g>
	<g id="Avatar_10">
		<path fill-rule="evenodd" clip-rule="evenodd" fill="#291E3E" d="M0.5,70h46.6V59.4c0-8.8-7.8-16-17.3-16h-1.2v-1.8v-3.1h-9.8v4.9
			h-1c-9.5,0-17.3,7.2-17.3,16V70z"/>
		<path fill-rule="evenodd" clip-rule="evenodd" fill="#1C1C1C" d="M0.9,69.5h45.7V59.4c0-4.3-1.9-8.1-4.9-11
			c-3.1-2.8-7.3-4.6-11.9-4.6h-1.2c-0.3,0-0.5-0.2-0.5-0.5v-4.4h-8.9v4.4c0,0.3-0.2,0.5-0.5,0.5h-1c-4.6,0-8.8,1.8-11.9,4.6
			c-3,2.8-4.9,6.7-4.9,11V69.5L0.9,69.5z M47.1,70.5H0.5C0.2,70.5,0,70.2,0,70V59.4c0-4.5,2-8.7,5.2-11.6c3.2-3,7.7-4.8,12.5-4.8
			h0.5v-4.4c0-0.3,0.2-0.5,0.5-0.5h9.8c0.3,0,0.5,0.2,0.5,0.5v4.4h0.8c4.9,0,9.3,1.8,12.5,4.8c3.2,3,5.2,7.1,5.2,11.6V70
			C47.6,70.2,47.4,70.5,47.1,70.5z"/>
		<path fill-rule="evenodd" clip-rule="evenodd" fill="#1C1C1C" d="M9.5,55.8c0.1-0.2,0.4-0.4,0.6-0.3c0.2,0.1,0.4,0.4,0.3,0.6
			c-0.3,0.8-0.5,1.6-0.6,2.5c-0.1,0.8-0.2,1.7-0.2,2.6v8.4H38v-8.4c0-0.9-0.1-1.7-0.2-2.6c-0.1-0.9-0.4-1.7-0.6-2.5
			c-0.1-0.2,0-0.5,0.3-0.6c0.2-0.1,0.5,0,0.6,0.3c0.3,0.8,0.5,1.7,0.7,2.6c0.1,0.9,0.2,1.8,0.2,2.7V70c0,0.3-0.2,0.5-0.5,0.5H9.1
			c-0.3,0-0.5-0.2-0.5-0.5v-8.8c0-0.9,0.1-1.8,0.2-2.7C9,57.5,9.2,56.7,9.5,55.8z"/>
		<path fill-rule="evenodd" clip-rule="evenodd" fill="#FDC27A" d="M28.6,37.2c0,2,0.1,12.3,0.1,12.3c-3.2,2.3-6.4,2.3-9.8,0
			c0-2.3-0.1-12.7-0.1-12.7C22.2,39.6,25.4,39.7,28.6,37.2z"/>
		<path fill-rule="evenodd" clip-rule="evenodd" fill="#1C1C1C" d="M29,37.2c0,2.4,0.1,12.3,0.1,12.3c0,0.2-0.1,0.3-0.2,0.4l0,0
			c-1.7,1.2-3.4,1.8-5.1,1.8c-1.7,0-3.5-0.6-5.3-1.8c-0.1-0.1-0.2-0.2-0.2-0.4c0-2.6-0.1-12.7-0.1-12.7c0-0.3,0.2-0.5,0.5-0.5
			c0.1,0,0.2,0,0.3,0.1c1.6,1.3,3.2,2,4.7,2.1c1.5,0.1,3-0.5,4.5-1.7c0.2-0.2,0.5-0.1,0.7,0.1C29,36.9,29,37,29,37.2L29,37.2
			L29,37.2z M28.2,49.2c0-1.4-0.1-8.4-0.1-11.2c-1.4,1-2.9,1.4-4.4,1.3c-1.5-0.1-3-0.6-4.5-1.7c0,2.6,0.1,9.5,0.1,11.5
			c1.5,1,3.1,1.5,4.5,1.5C25.4,50.7,26.8,50.2,28.2,49.2z"/>
		
			<rect x="12.1" y="56.2" transform="matrix(0.2088 -0.978 0.978 0.2088 -35.0614 70.0039)" fill-rule="evenodd" clip-rule="evenodd" fill="#1C1C1C" width="27.2" height="0.9"/>
		<polygon fill-rule="evenodd" clip-rule="evenodd" fill="#1C1C1C" points="27.6,49.3 34.4,56.1 26.3,70.2 25.5,69.7 33.2,56.3 
			26.9,50 		"/>
		
			<rect x="9.4" y="54.4" transform="matrix(-0.2088 -0.978 0.978 -0.2088 -28.0352 87.0586)" fill-rule="evenodd" clip-rule="evenodd" fill="#1C1C1C" width="23.5" height="0.9"/>
		<polygon fill-rule="evenodd" clip-rule="evenodd" fill="#1C1C1C" points="20.4,50 14.1,56.3 21.8,69.7 21,70.2 12.9,56.1 
			19.8,49.3 		"/>
		<path fill-rule="evenodd" clip-rule="evenodd" fill="#DCDBDB" d="M20.4,53.5l3.2,12.9l3.2-12.9l1.2-6.7c-2.9,1-5.8,1-8.9,0
			L20.4,53.5z"/>
		<path fill-rule="evenodd" clip-rule="evenodd" fill="#1C1C1C" d="M20.9,53.4l2.8,11.1l2.8-11.1l1.1-5.9C26.3,47.8,25,48,23.7,48
			c-1.3,0-2.6-0.2-3.9-0.5L20.9,53.4L20.9,53.4z M23.2,66.5L20,53.6l-1.2-6.7c0-0.1,0-0.2,0-0.3c0.1-0.2,0.3-0.4,0.6-0.3
			c1.5,0.5,3,0.7,4.4,0.7c1.4,0,2.8-0.2,4.2-0.7c0.1,0,0.2,0,0.2,0c0.3,0,0.4,0.3,0.4,0.5l-1.2,6.6c0,0,0,0,0,0.1l-3.2,12.9
			c0,0.2-0.2,0.3-0.3,0.4C23.5,66.9,23.3,66.7,23.2,66.5z"/>
		<path fill-rule="evenodd" clip-rule="evenodd" fill="#FDC27A" d="M23.9,8.2L23.9,8.2c6.4,0,11.6,5.2,11.6,11.6v8.6
			c0,6.4-5.2,11.6-11.6,11.6h0c-6.4,0-11.6-5.2-11.6-11.6v-8.6C12.2,13.4,17.5,8.2,23.9,8.2z"/>
		<path fill-rule="evenodd" clip-rule="evenodd" fill="#1C1C1C" d="M23.9,7.7c3.3,0,6.4,1.4,8.5,3.6c2.2,2.2,3.6,5.2,3.6,8.5v8.6
			c0,3.3-1.4,6.4-3.6,8.5c-2.2,2.2-5.2,3.6-8.5,3.6c-3.3,0-6.4-1.4-8.5-3.6c-2.2-2.2-3.6-5.2-3.6-8.5v-8.6c0-3.3,1.4-6.4,3.6-8.5
			C17.5,9.1,20.5,7.7,23.9,7.7L23.9,7.7z M31.7,11.9c-2-2-4.8-3.3-7.9-3.3c-3.1,0-5.9,1.3-7.9,3.3c-2,2-3.3,4.8-3.3,7.9v8.6
			c0,3.1,1.3,5.9,3.3,7.9c2,2,4.8,3.3,7.9,3.3c3.1,0,5.9-1.3,7.9-3.3c2-2,3.3-4.8,3.3-7.9v-8.6C35,16.7,33.8,13.9,31.7,11.9z"/>
		<circle fill-rule="evenodd" clip-rule="evenodd" fill="#40545A" cx="18.4" cy="24.3" r="1.4"/>
		<path fill-rule="evenodd" clip-rule="evenodd" fill="#1C1C1C" d="M18.4,22.5c0.5,0,1,0.2,1.3,0.5v0c0.3,0.3,0.5,0.8,0.5,1.3
			c0,0.5-0.2,1-0.5,1.3v0c-0.3,0.3-0.8,0.5-1.3,0.5c-0.5,0-1-0.2-1.3-0.5c-0.3-0.3-0.5-0.8-0.5-1.3c0-0.5,0.2-1,0.5-1.3h0
			C17.4,22.7,17.9,22.5,18.4,22.5L18.4,22.5z M19.1,23.7L19.1,23.7c-0.2-0.2-0.4-0.3-0.7-0.3c-0.3,0-0.5,0.1-0.7,0.3l0,0
			c-0.2,0.2-0.3,0.4-0.3,0.7c0,0.3,0.1,0.5,0.3,0.7c0.2,0.2,0.4,0.3,0.7,0.3c0.3,0,0.5-0.1,0.7-0.3l0,0c0.2-0.2,0.3-0.4,0.3-0.7
			C19.3,24.1,19.2,23.9,19.1,23.7z"/>
		<circle fill-rule="evenodd" clip-rule="evenodd" fill="#40545A" cx="29.3" cy="24.3" r="1.4"/>
		<path fill-rule="evenodd" clip-rule="evenodd" fill="#1C1C1C" d="M29.3,23.4c-0.3,0-0.5,0.1-0.7,0.3l0,0c-0.2,0.2-0.3,0.4-0.3,0.7
			c0,0.3,0.1,0.5,0.3,0.7c0.2,0.2,0.4,0.3,0.7,0.3c0.3,0,0.5-0.1,0.7-0.3l0,0c0.2-0.2,0.3-0.4,0.3-0.7c0-0.3-0.1-0.5-0.3-0.7l0,0
			C29.8,23.5,29.6,23.4,29.3,23.4L29.3,23.4z M28,23c0.3-0.3,0.8-0.5,1.3-0.5c0.5,0,1,0.2,1.3,0.5v0c0.3,0.3,0.5,0.8,0.5,1.3
			c0,0.5-0.2,1-0.5,1.3v0c-0.3,0.3-0.8,0.5-1.3,0.5c-0.5,0-1-0.2-1.3-0.5c-0.3-0.3-0.5-0.8-0.5-1.3C27.5,23.8,27.7,23.4,28,23L28,23
			z"/>
		<path fill-rule="evenodd" clip-rule="evenodd" fill="#1C1C1C" d="M24.1,30.2c0,0.3-0.2,0.5-0.5,0.5s-0.5-0.2-0.5-0.5
			c0-0.8,0-1.2,0.2-1.5c0.3-0.4,0.6-0.4,1.3-0.4c0.3,0,0.4-0.1,0.5-0.3c0-0.1,0-0.2,0-0.3c0-0.1,0-0.2,0-0.3
			c-0.1-0.2-0.2-0.3-0.3-0.3c-0.3,0-0.5-0.2-0.5-0.5v-3.6c0-0.3,0.2-0.5,0.5-0.5c0.3,0,0.5,0.2,0.5,0.5v3.2c0.4,0.1,0.6,0.5,0.7,0.8
			v0c0.1,0.2,0.1,0.4,0.1,0.6c0,0.2,0,0.4-0.1,0.6c-0.2,0.5-0.6,0.9-1.4,0.9c-0.4,0-0.5,0-0.5,0C24.1,29.3,24.1,29.6,24.1,30.2z"/>
		<path fill-rule="evenodd" clip-rule="evenodd" fill="#FFFFFF" d="M27.7,31.9c-0.3,1.9-2.1,3.4-4.1,3.4l0,0c-2,0-3.7-1.5-4.1-3.4
			H27.7z"/>
		<path fill-rule="evenodd" clip-rule="evenodd" fill="#1C1C1C" d="M28.2,32c-0.2,1.1-0.8,2-1.6,2.7c-0.8,0.7-1.8,1.1-3,1.1
			c-1.1,0-2.2-0.4-3-1.1c-0.8-0.7-1.4-1.6-1.6-2.7c0-0.3,0.1-0.5,0.4-0.5c0,0,0.1,0,0.1,0l8.2,0c0.3,0,0.5,0.2,0.5,0.5
			C28.2,31.9,28.2,32,28.2,32L28.2,32z M26,34c0.5-0.4,0.9-1,1.1-1.6h-7c0.2,0.6,0.6,1.2,1.1,1.6c0.6,0.5,1.5,0.9,2.4,0.9
			C24.5,34.9,25.4,34.5,26,34z"/>
		<path fill-rule="evenodd" clip-rule="evenodd" fill="#FDC27A" d="M12.2,22.2L12.2,22.2c-0.1-0.5-0.5-0.9-1-0.9h-0.8
			c-0.6,0-1,0.5-1,1v3.3l0,0c0,1.7,1.2,3.1,2.9,3.4v-3.4v-3.3V22.2z"/>
		<path fill-rule="evenodd" clip-rule="evenodd" fill="#1C1C1C" d="M11.8,22.3L11.8,22.3c0-0.2-0.1-0.3-0.2-0.4
			c-0.1-0.1-0.2-0.1-0.4-0.1h-0.8c-0.2,0-0.3,0.1-0.4,0.2c-0.1,0.1-0.2,0.2-0.2,0.4v3.3c0,0.7,0.3,1.4,0.7,1.9
			c0.3,0.4,0.7,0.7,1.2,0.9V22.3L11.8,22.3z M12.2,21.2c0.1,0.1,0.3,0.3,0.4,0.5l0.2,0v7.9l-0.6-0.1c-0.9-0.2-1.7-0.7-2.3-1.4
			c-0.6-0.7-0.9-1.6-0.9-2.5v-3.3c0-0.4,0.2-0.8,0.4-1.1c0.3-0.3,0.6-0.4,1.1-0.4h0.8C11.6,20.9,11.9,21,12.2,21.2z"/>
		<path fill-rule="evenodd" clip-rule="evenodd" fill="#FDC27A" d="M35.5,22.2L35.5,22.2c0.1-0.5,0.5-0.9,1-0.9h0.8c0.6,0,1,0.5,1,1
			v3.3l0,0c0,1.7-1.2,3.1-2.9,3.4v-3.4v-3.3V22.2z"/>
		<path fill-rule="evenodd" clip-rule="evenodd" fill="#1C1C1C" d="M36,22.3L36,22.3l0,6.1c0.5-0.2,0.9-0.5,1.2-0.9
			c0.4-0.5,0.7-1.2,0.7-1.9v-3.3c0-0.2-0.1-0.3-0.2-0.4c-0.1-0.1-0.2-0.2-0.4-0.2h-0.8c-0.1,0-0.3,0.1-0.4,0.1
			C36.1,22,36,22.2,36,22.3L36,22.3z M35.2,21.7c0.1-0.2,0.2-0.3,0.4-0.5c0.3-0.2,0.6-0.4,1-0.4h0.8c0.4,0,0.8,0.2,1.1,0.4
			c0.3,0.3,0.4,0.6,0.4,1.1v3.3c0,1-0.3,1.8-0.9,2.5c-0.6,0.7-1.4,1.2-2.3,1.4L35,29.6v-7.9L35.2,21.7z"/>
		<path fill-rule="evenodd" clip-rule="evenodd" fill="#1C1C1C" d="M15.8,21.8c-0.2,0.2-0.5,0.2-0.7,0c-0.2-0.2-0.2-0.5,0-0.7
			c0.4-0.4,0.9-0.8,1.5-1l0,0c0.5-0.2,1.1-0.3,1.7-0.3c0.6,0,1.2,0.1,1.7,0.3l0,0c0.6,0.2,1.1,0.6,1.5,1c0.2,0.2,0.2,0.5,0,0.7
			c-0.2,0.2-0.5,0.2-0.7,0c-0.3-0.3-0.7-0.6-1.2-0.8c-0.4-0.2-0.9-0.3-1.4-0.3c-0.5,0-0.9,0.1-1.4,0.3l0,0
			C16.6,21.2,16.2,21.5,15.8,21.8L15.8,21.8z M26.8,21.8c-0.2,0.2-0.5,0.2-0.7,0c-0.2-0.2-0.2-0.5,0-0.7c0.4-0.4,0.9-0.8,1.5-1l0,0
			c0.5-0.2,1.1-0.3,1.7-0.3c0.6,0,1.2,0.1,1.7,0.3l0,0c0.6,0.2,1.1,0.6,1.5,1c0.2,0.2,0.2,0.5,0,0.7c-0.2,0.2-0.5,0.2-0.7,0
			c-0.3-0.3-0.7-0.6-1.2-0.8c-0.4-0.2-0.9-0.3-1.4-0.3c-0.5,0-0.9,0.1-1.4,0.3l0,0C27.5,21.2,27.1,21.5,26.8,21.8z"/>
		<polygon fill-rule="evenodd" clip-rule="evenodd" fill="#DCDBDB" points="18.8,40.9 23.3,46.8 19.4,50.4 16.2,43 		"/>
		<path fill-rule="evenodd" clip-rule="evenodd" fill="#1C1C1C" d="M19.1,40.6l4.6,5.9c0.2,0.2,0.1,0.5-0.1,0.6l-3.9,3.6
			c-0.2,0.2-0.5,0.2-0.7,0c0,0-0.1-0.1-0.1-0.1l-3.2-7.4c-0.1-0.2,0-0.4,0.1-0.5l2.5-2.1C18.7,40.4,19,40.4,19.1,40.6L19.1,40.6
			L19.1,40.6z M22.7,46.7l-4-5.2l-1.9,1.6l2.8,6.5L22.7,46.7z"/>
		<polygon fill-rule="evenodd" clip-rule="evenodd" fill="#DCDBDB" points="28.8,40.9 24.2,46.8 28.1,50.4 31.3,43 		"/>
		<path fill-rule="evenodd" clip-rule="evenodd" fill="#1C1C1C" d="M28.9,41.6l-4,5.2l3.1,2.9l2.8-6.5L28.9,41.6L28.9,41.6z
			 M23.8,46.5l4.6-5.9c0.2-0.2,0.5-0.2,0.7-0.1l2.5,2.1c0.2,0.1,0.2,0.4,0.1,0.5l-3.2,7.4c0,0-0.1,0.1-0.1,0.1
			c-0.2,0.2-0.5,0.2-0.7,0l-3.9-3.6C23.7,47,23.7,46.7,23.8,46.5z"/>
		<polygon fill-rule="evenodd" clip-rule="evenodd" fill="#291E3E" points="27.2,49.7 30.2,52.6 35.7,51.2 32.2,43.5 28.6,41 		"/>
		<path fill-rule="evenodd" clip-rule="evenodd" fill="#1C1C1C" d="M27.7,49.5l2.6,2.6l4.7-1.3l-3.3-7l-2.9-2L27.7,49.5L27.7,49.5z
			 M29.9,53l-3.1-3.1c0.5-3.2,1-6.4,1.5-9.6l4.3,3l3.8,8.3l-6.3,1.7L29.9,53z"/>
		<polygon fill-rule="evenodd" clip-rule="evenodd" fill="#291E3E" points="20.1,49.7 17.1,52.6 11.6,51.2 15.1,43.5 18.7,41 		"/>
		<path fill-rule="evenodd" clip-rule="evenodd" fill="#1C1C1C" d="M20.4,50l-3.2,3.2l-6.3-1.7c1.3-2.8,2.6-5.5,3.8-8.3l4.3-3
			l1.5,9.6L20.4,50L20.4,50z M17,52.1l2.6-2.6l-1.2-7.7l-2.9,2l-3.3,7L17,52.1z"/>
		<polygon fill-rule="evenodd" clip-rule="evenodd" fill="#DC5940" points="26.2,48.6 24.2,46.8 23.3,46.8 21.4,48.6 22.9,53 
			24.3,53 		"/>
		<path fill-rule="evenodd" clip-rule="evenodd" fill="#1C1C1C" d="M25.6,48.7L24,47.2h-0.5l-1.6,1.5l1.4,3.8H24L25.6,48.7
			L25.6,48.7z M24.5,46.4l2.2,2.1l-2.1,5h-2l-1.8-5l2.3-2.2h1.2L24.5,46.4z"/>
		<polygon fill-rule="evenodd" clip-rule="evenodd" fill="#DC5940" points="24.3,53 22.9,53 21.1,56.3 23.7,66.4 26.1,56.8 		"/>
		<path fill-rule="evenodd" clip-rule="evenodd" fill="#1C1C1C" d="M24,53.5h-0.8l-1.6,2.9l2,8.1l1.9-7.6L24,53.5L24,53.5z
			 M22.9,52.5h1.7l1.9,4.2l-2.9,11.6c-1-4-2-8-3-12l2-3.7H22.9z"/>
		<path fill-rule="evenodd" clip-rule="evenodd" fill="#1C1C1C" d="M38.5,64c0.3,0,0.5,0.2,0.5,0.5c0,0.3-0.2,0.5-0.5,0.5h-5.8
			c-0.3,0-0.5-0.2-0.5-0.5c0-0.3,0.2-0.5,0.5-0.5H38.5z"/>
		<path fill-rule="evenodd" clip-rule="evenodd" fill="#DCDBDB" d="M23.9,7L23.9,7c6.4,0,11.6,1.6,11.6,8v9.1h-2.1v-3.8
			c0.1-6.4-3.3-9.3-9.5-6.2c-6.2-3.1-9.6-0.2-9.5,6.2v3.8h-2.2v-9.4C12.2,8.3,17.5,7,23.9,7z"/>
		<path fill-rule="evenodd" clip-rule="evenodd" fill="#1C1C1C" d="M23.9,6.6c3.3,0,6.3,0.4,8.4,1.6C34.6,9.5,36,11.6,36,15v9.5h-3
			v-4.3l0,0c0-1.9-0.3-3.5-0.8-4.6c-0.4-0.7-0.9-1.3-1.5-1.7c-0.6-0.4-1.3-0.6-2.2-0.6c-1.2,0-2.7,0.4-4.3,1.2l-0.2,0.1l-0.2-0.1
			c-1.7-0.8-3.1-1.2-4.3-1.2c-0.8,0-1.6,0.2-2.2,0.6c-0.6,0.4-1.1,1-1.5,1.7c-0.6,1.2-0.9,2.7-0.9,4.6l0,0v4.3h-3.1v-9.9
			c0-3.4,1.4-5.4,3.7-6.6C17.6,6.9,20.6,6.6,23.9,6.6L23.9,6.6z M23.9,7.5c-3.1,0-6,0.3-8,1.4c-2,1-3.2,2.8-3.2,5.8v8.9h1.2v-3.4h0
			c0-2.1,0.3-3.8,0.9-5.1c0.4-0.9,1.1-1.6,1.8-2.1c0.8-0.5,1.6-0.7,2.7-0.8c1.3,0,2.8,0.4,4.5,1.2c1.7-0.8,3.2-1.2,4.5-1.2
			c1,0,1.9,0.3,2.7,0.8c0.8,0.5,1.4,1.2,1.8,2.1c0.7,1.3,1,3,0.9,5.1h0v3.4H35V15c0-3-1.2-4.9-3.2-6C29.8,7.9,27,7.5,23.9,7.5z"/>
		<path fill-rule="evenodd" clip-rule="evenodd" fill="#1C1C1C" d="M12,12.9c1.3-1.6,3-2.3,5.1-2.1c1.9,0.2,4.2,1.1,6.8,2.8
			c0.2-0.1,0.4-0.3,0.6-0.4c2.3-1.7,4.4-2.6,6.3-2.6c1.9-0.1,3.5,0.7,4.8,2.4c0.1,0.1,0.1,0.2,0.2,0.3L35,13.7
			c-0.1-0.1-0.1-0.2-0.2-0.3c-1.1-1.4-2.4-2.1-4-2c-1.6,0-3.5,0.9-5.7,2.4c-0.3,0.2-0.5,0.4-0.8,0.6L24,14.6l-0.3-0.2
			c-2.6-1.7-4.8-2.7-6.7-2.8c-1.8-0.1-3.2,0.5-4.3,1.8L12,12.9z"/>
	</g>
	<path fill="#2A2436" d="M23.9,14.2c5,0,9.5,2,12.2,5.2l4.9-5.5c0,0-3.9-4-4.6-8.6c0,0-8.3,0-12.5-5.3c-5.4,5.7-12.5,5.3-12.5,5.3
		c-0.6,4.6-4.6,8.6-4.6,8.6l4.9,5.5C14.4,16.1,18.9,14.2,23.9,14.2z"/>
	<path fill="#3A334A" d="M35.7,18.1H12.1v-6.2c0,0,5.2-2.2,11.8-2.2c7.4,0,11.8,2.2,11.8,2.2V18.1z"/>
	<g>
		<path fill="#FBAC4E" d="M23.9,7.8c-1.1,0.6-2.3,1-3.6,1.1c0.1,2.8,1.5,5.3,3.6,6.8c2.1-1.5,3.5-4,3.6-6.8
			C26.2,8.8,25,8.4,23.9,7.8z"/>
	</g>
	<path fill="#19161F" d="M35.6,18.2c0,0.5-5.2,1.9-11.7,1.9s-11.7-1.3-11.7-1.9c0-0.5,5.2-0.1,11.7-0.1S35.6,17.6,35.6,18.2z"/>
</g>
</svg>
