<?xml version="1.0" encoding="utf-8"?>
<!-- Generator: Adobe Illustrator 18.0.0, SVG Export Plug-In . SVG Version: 6.00 Build 0)  -->
<!DOCTYPE svg PUBLIC "-//W3C//DTD SVG 1.1//EN" "http://www.w3.org/Graphics/SVG/1.1/DTD/svg11.dtd">
<svg version="1.1" id="Layer_1" xmlns="http://www.w3.org/2000/svg" xmlns:xlink="http://www.w3.org/1999/xlink" x="0px" y="0px"
	 viewBox="0 0 47.6 65.1" enable-background="new 0 0 47.6 65.1" xml:space="preserve">
<g id="Avatar_9">
	<path fill-rule="evenodd" clip-rule="evenodd" fill="#40545A" d="M25.8,21.5c0-8.1,3-12.3,9.6-13.2c3.4,0,5.2,3.6,5.2,7.4v8.1
		c0,3.7-1.1,7.2-2.9,9.9c-2.2,3.2-5.3,5.3-8.9,5.8c-0.5,0.1-0.9,0.1-1.4,0.1c-1.4,0-2.8-0.3-4-0.8c1.6-2.6,2.5-5.8,2.5-9.2V21.5z"/>
	<path fill-rule="evenodd" clip-rule="evenodd" fill="#1C1C1C" d="M25.3,21.5c0-4.1,0.8-7.3,2.4-9.6c1.7-2.3,4.2-3.6,7.6-4.1l0,0h0
		c1.8,0,3.1,0.9,4.1,2.2c1,1.5,1.6,3.5,1.6,5.6v8.1c0,1.9-0.3,3.7-0.8,5.4c-0.5,1.7-1.3,3.4-2.3,4.8c-1.1,1.7-2.5,3.1-4.1,4.1
		c-1.5,1-3.3,1.7-5.1,1.9c-0.3,0-0.5,0.1-0.7,0.1c-0.3,0-0.5,0-0.7,0c-0.7,0-1.4-0.1-2.1-0.2c-0.7-0.1-1.4-0.3-2.1-0.6l-0.5-0.2
		l0.3-0.5c0.8-1.3,1.4-2.7,1.8-4.3c0.4-1.5,0.6-3.1,0.6-4.7V21.5L25.3,21.5z M28.5,12.5c-1.5,2.1-2.2,5.1-2.2,9v8.1
		c0,1.7-0.2,3.4-0.7,5c-0.4,1.4-0.9,2.8-1.6,4c0.5,0.1,0.9,0.3,1.4,0.4c0.6,0.1,1.3,0.2,2,0.2c0.2,0,0.5,0,0.7,0
		c0.2,0,0.5,0,0.7-0.1c1.7-0.2,3.3-0.8,4.7-1.8c1.5-1,2.8-2.3,3.9-3.8c0.9-1.3,1.6-2.9,2.1-4.5c0.5-1.6,0.7-3.3,0.7-5.1v-8.1
		c0-1.9-0.5-3.8-1.4-5.1c-0.8-1.1-1.9-1.8-3.3-1.8C32.3,9.2,30,10.4,28.5,12.5z"/>
	<path fill-rule="evenodd" clip-rule="evenodd" fill="#FDC27A" d="M38.4,22.4v0.3l0,0c0,1.7-1.2,3.1-2.9,3.4v-3.4v-3.1
		C35.9,20.9,36.6,22,38.4,22.4z"/>
	<path fill-rule="evenodd" clip-rule="evenodd" fill="#1C1C1C" d="M38.8,22.4v0.3c0,1-0.3,1.8-0.9,2.5c-0.6,0.7-1.4,1.2-2.3,1.4
		L35,26.6V16.5l0.9,2.9c0.2,0.6,0.4,1.1,0.8,1.5c0.4,0.4,0.9,0.7,1.7,0.9l0.4,0.1V22.4L38.8,22.4z M37.2,24.6
		c0.4-0.5,0.7-1.1,0.7-1.8c-0.8-0.2-1.4-0.6-1.8-1.1L36,21.5v3.9C36.4,25.3,36.9,25,37.2,24.6z"/>
	<path fill-rule="evenodd" clip-rule="evenodd" fill="#DCDBDB" d="M0.5,67h46.6V56.4c0-8.8-7.8-16-17.3-16h-12
		c-9.5,0-17.3,7.2-17.3,16V67z"/>
	<path fill-rule="evenodd" clip-rule="evenodd" fill="#1C1C1C" d="M0.9,66.5h45.7V56.4c0-4.3-1.9-8.1-4.9-11
		c-3.1-2.8-7.3-4.6-11.9-4.6h-12c-4.6,0-8.9,1.8-11.9,4.6c-3,2.8-4.9,6.7-4.9,11V66.5L0.9,66.5z M47.1,67.4H0.5
		C0.2,67.4,0,67.2,0,67V56.4c0-4.5,2-8.7,5.2-11.6c3.2-3,7.7-4.8,12.5-4.8h12c4.9,0,9.3,1.8,12.5,4.8c3.2,3,5.2,7.1,5.2,11.6V67
		C47.6,67.2,47.4,67.4,47.1,67.4z"/>
	<path fill-rule="evenodd" clip-rule="evenodd" fill="#1C1C1C" d="M9.5,52.8c0.1-0.2,0.4-0.4,0.6-0.3c0.2,0.1,0.4,0.4,0.3,0.6
		c-0.3,0.8-0.5,1.6-0.6,2.5c-0.1,0.8-0.2,1.7-0.2,2.6v8.4H38v-8.4c0-0.9-0.1-1.7-0.2-2.6c-0.1-0.9-0.4-1.7-0.6-2.5
		c-0.1-0.2,0-0.5,0.3-0.6c0.2-0.1,0.5,0,0.6,0.3c0.3,0.8,0.5,1.7,0.7,2.6c0.1,0.9,0.2,1.8,0.2,2.7V67c0,0.3-0.2,0.5-0.5,0.5H9.1
		c-0.3,0-0.5-0.2-0.5-0.5v-8.8c0-0.9,0.1-1.8,0.2-2.7C9,54.5,9.2,53.7,9.5,52.8z"/>
	<path fill-rule="evenodd" clip-rule="evenodd" fill="#40545A" d="M21.9,21.5c0-8.1-3-12.3-9.6-13.2c-3.4,0-5.2,3.6-5.2,7.4v8.1
		c0,3.7,1.1,7.2,2.9,9.9c2.2,3.2,5.3,5.3,8.9,5.8c0.5,0.1,0.9,0.1,1.4,0.1c1.4,0,2.8-0.3,4-0.8c-1.6-2.6-2.5-5.8-2.5-9.2V21.5z"/>
	<path fill-rule="evenodd" clip-rule="evenodd" fill="#1C1C1C" d="M21.5,21.5c0-3.9-0.7-6.9-2.2-9c-1.5-2.1-3.8-3.3-6.9-3.7
		c-1.4,0-2.5,0.7-3.3,1.8c-0.9,1.3-1.4,3.2-1.4,5.1v8.1c0,1.8,0.3,3.5,0.7,5.1c0.5,1.7,1.2,3.2,2.1,4.5c1.1,1.6,2.4,2.9,3.9,3.8
		c1.4,0.9,3,1.5,4.7,1.8c0.2,0,0.4,0,0.7,0.1c0.2,0,0.4,0,0.7,0c0.7,0,1.3-0.1,2-0.2c0.5-0.1,0.9-0.2,1.4-0.4
		c-0.7-1.2-1.2-2.6-1.6-4c-0.4-1.6-0.7-3.2-0.7-5V21.5L21.5,21.5z M20,11.9c1.6,2.3,2.4,5.4,2.4,9.6v8.1c0,1.6,0.2,3.2,0.6,4.7
		c0.4,1.5,1,3,1.8,4.3l0.3,0.5l-0.5,0.2c-0.7,0.3-1.4,0.5-2.1,0.6C21.9,40,21.1,40,20.4,40c-0.2,0-0.5,0-0.7,0c-0.2,0-0.5,0-0.7-0.1
		c-1.8-0.2-3.6-0.9-5.1-1.9c-1.6-1-3-2.4-4.1-4.1c-1-1.4-1.7-3-2.3-4.8c-0.5-1.7-0.8-3.5-0.8-5.4v-8.1c0-2.1,0.5-4.1,1.6-5.6
		c0.9-1.3,2.3-2.2,4.1-2.2h0l0,0C15.8,8.3,18.4,9.6,20,11.9z"/>
	<path fill-rule="evenodd" clip-rule="evenodd" fill="#FDC27A" d="M18.7,35.5h9.8v6.1c0,2.3-2.2,4.2-4.9,4.2l0,0
		c-2.7,0-4.9-1.9-4.9-4.2V35.5z"/>
	<path fill-rule="evenodd" clip-rule="evenodd" fill="#1C1C1C" d="M18.7,35H29v6.6c0,1.3-0.6,2.5-1.6,3.3c-1,0.8-2.3,1.4-3.8,1.4
		c-1.5,0-2.8-0.5-3.8-1.4c-1-0.9-1.6-2-1.6-3.3V35H18.7L18.7,35z M28.1,35.9h-8.9v5.6c0,1,0.5,1.9,1.3,2.6c0.8,0.7,1.9,1.1,3.2,1.1
		c1.2,0,2.4-0.4,3.2-1.1c0.8-0.7,1.3-1.6,1.3-2.6V35.9z"/>
	<path fill-rule="evenodd" clip-rule="evenodd" fill="#FDC27A" d="M23.9,9.4L23.9,9.4c6.4,0,11.6,5.2,11.6,11.6v4.3
		c0,6.4-5.2,11.6-11.6,11.6h0c-6.4,0-11.6-5.2-11.6-11.6v-4.3C12.2,14.7,17.5,9.4,23.9,9.4z"/>
	<path fill-rule="evenodd" clip-rule="evenodd" fill="#1C1C1C" d="M23.9,9c3.3,0,6.4,1.4,8.5,3.6c2.2,2.2,3.6,5.2,3.6,8.5v4.3
		c0,3.3-1.4,6.4-3.6,8.5c-2.2,2.2-5.2,3.6-8.5,3.6c-3.3,0-6.4-1.4-8.5-3.6c-2.2-2.2-3.6-5.2-3.6-8.5v-4.3c0-3.3,1.4-6.4,3.6-8.5
		C17.5,10.3,20.5,9,23.9,9L23.9,9z M23.9,9.9c-3.1,0-5.9,1.3-7.9,3.3c-2,2-3.3,4.8-3.3,7.9v4.3c0,3.1,1.3,5.9,3.3,7.9
		c2,2,4.8,3.3,7.9,3.3c3.1,0,5.9-1.3,7.9-3.3c2-2,3.3-4.8,3.3-7.9v-4.3c0-3.1-1.3-5.9-3.3-7.9C29.7,11.2,26.9,9.9,23.9,9.9z"/>
	<circle fill-rule="evenodd" clip-rule="evenodd" fill="#40545A" cx="18.4" cy="21.3" r="1.4"/>
	<path fill-rule="evenodd" clip-rule="evenodd" fill="#1C1C1C" d="M18.4,19.5c0.5,0,1,0.2,1.3,0.5v0c0.3,0.3,0.5,0.8,0.5,1.3
		c0,0.5-0.2,1-0.5,1.3v0c-0.3,0.3-0.8,0.5-1.3,0.5c-0.5,0-1-0.2-1.3-0.5c-0.3-0.3-0.5-0.8-0.5-1.3c0-0.5,0.2-1,0.5-1.3h0
		C17.4,19.7,17.9,19.5,18.4,19.5L18.4,19.5z M19.1,20.7L19.1,20.7c-0.2-0.2-0.4-0.3-0.7-0.3c-0.3,0-0.5,0.1-0.7,0.3l0,0
		c-0.2,0.2-0.3,0.4-0.3,0.7c0,0.3,0.1,0.5,0.3,0.7c0.2,0.2,0.4,0.3,0.7,0.3c0.3,0,0.5-0.1,0.7-0.3l0,0c0.2-0.2,0.3-0.4,0.3-0.7
		S19.2,20.9,19.1,20.7z"/>
	<circle fill-rule="evenodd" clip-rule="evenodd" fill="#40545A" cx="29.3" cy="21.3" r="1.4"/>
	<path fill-rule="evenodd" clip-rule="evenodd" fill="#1C1C1C" d="M29.3,20.4c-0.3,0-0.5,0.1-0.7,0.3l0,0c-0.2,0.2-0.3,0.4-0.3,0.7
		c0,0.3,0.1,0.5,0.3,0.7c0.2,0.2,0.4,0.3,0.7,0.3c0.3,0,0.5-0.1,0.7-0.3l0,0c0.2-0.2,0.3-0.4,0.3-0.7s-0.1-0.5-0.3-0.7l0,0
		C29.8,20.5,29.6,20.4,29.3,20.4L29.3,20.4z M28,20c0.3-0.3,0.8-0.5,1.3-0.5c0.5,0,1,0.2,1.3,0.5v0c0.3,0.3,0.5,0.8,0.5,1.3
		c0,0.5-0.2,1-0.5,1.3v0c-0.3,0.3-0.8,0.5-1.3,0.5c-0.5,0-1-0.2-1.3-0.5c-0.3-0.3-0.5-0.8-0.5-1.3C27.5,20.8,27.7,20.4,28,20L28,20z
		"/>
	<path fill-rule="evenodd" clip-rule="evenodd" fill="#FDC27A" d="M9.4,22.4v0.3l0,0c0,1.7,1.2,3.1,2.9,3.4v-3.4v-3.1
		C11.8,20.9,11.2,22,9.4,22.4z"/>
	<path fill-rule="evenodd" clip-rule="evenodd" fill="#1C1C1C" d="M8.9,22.7V22l0.4-0.1c0.8-0.2,1.3-0.5,1.7-0.9
		c0.4-0.4,0.6-1,0.8-1.5l0.9-2.9v10.1l-0.6-0.1c-0.9-0.2-1.7-0.7-2.3-1.4C9.3,24.5,8.9,23.6,8.9,22.7L8.9,22.7z M9.9,22.7
		c0,0.7,0.3,1.3,0.7,1.8c0.3,0.4,0.7,0.7,1.2,0.9v-3.9l-0.1,0.1C11.2,22.1,10.6,22.5,9.9,22.7z"/>
	<path fill-rule="evenodd" clip-rule="evenodd" fill="#1C1C1C" d="M24.1,27.2c0,0.3-0.2,0.5-0.5,0.5c-0.3,0-0.5-0.2-0.5-0.5
		c0-0.8,0-1.2,0.2-1.5c0.3-0.4,0.6-0.4,1.3-0.4c0.3,0,0.4-0.1,0.5-0.3c0-0.1,0-0.2,0-0.3c0-0.1,0-0.2,0-0.3
		c-0.1-0.2-0.2-0.3-0.3-0.3c-0.3,0-0.5-0.2-0.5-0.5v-3.6c0-0.3,0.2-0.5,0.5-0.5c0.3,0,0.5,0.2,0.5,0.5v3.2c0.4,0.1,0.6,0.5,0.7,0.8
		v0c0.1,0.2,0.1,0.4,0.1,0.6c0,0.2,0,0.4-0.1,0.6c-0.2,0.5-0.6,0.9-1.4,0.9c-0.4,0-0.5,0-0.5,0C24.1,26.3,24.1,26.6,24.1,27.2z"/>
	<path fill-rule="evenodd" clip-rule="evenodd" fill="#40545A" d="M25.7,20c-7.3-0.7-12.5-2.2-13.2-10.8c-1.6-7.1,4.7-9.1,8-8.7
		l7.3,0.7c3.3,0.3,6.4,2.1,8.9,4.7c2.8,3.1,4.8,7.3,5.2,11.9c0.1,0.6,0.1,1.2,0.1,1.8c0,1.8-0.2,3.5-0.7,5.1
		c-2.3-2.3-5.2-3.8-8.3-4.1L25.7,20z"/>
	<path fill-rule="evenodd" clip-rule="evenodd" fill="#1C1C1C" d="M25.6,20.5c-3.7-0.4-6.9-0.9-9.3-2.5c-2.4-1.6-4-4.2-4.4-8.6
		c-0.3-1.2-0.3-2.2-0.2-3.1c0.2-1.8,1-3.1,2.1-4.1c1.1-1,2.4-1.5,3.7-1.8C18.6,0,19.6,0,20.5,0l7.3,0.7c1.7,0.2,3.3,0.7,4.9,1.5
		c1.6,0.8,3,2,4.3,3.3c1.5,1.6,2.7,3.5,3.6,5.6c0.9,2,1.5,4.3,1.7,6.6h0c0,0.3,0,0.6,0.1,0.9c0,0.3,0,0.6,0,0.9
		c0,0.9-0.1,1.8-0.2,2.7c-0.1,0.9-0.3,1.7-0.5,2.6c-0.1,0.2-0.3,0.4-0.6,0.3c-0.1,0-0.1-0.1-0.2-0.1c-1.2-1.1-2.4-2-3.8-2.7
		c-1.3-0.7-2.7-1.1-4.2-1.2L25.6,20.5L25.6,20.5z M16.9,17.1c2.2,1.5,5.3,2,8.8,2.4l7.3,0.7c1.6,0.2,3.1,0.6,4.5,1.3
		c1.2,0.6,2.4,1.4,3.5,2.3c0.1-0.5,0.2-1.1,0.3-1.7c0.1-0.8,0.2-1.7,0.2-2.5c0-0.3,0-0.6,0-0.9c0-0.3,0-0.6-0.1-0.9l0,0
		c-0.2-2.2-0.8-4.4-1.6-6.3c-0.9-2-2.1-3.8-3.5-5.3c-1.2-1.3-2.6-2.4-4-3.1c-1.4-0.7-2.9-1.2-4.5-1.4L20.4,1c-0.8-0.1-1.7,0-2.7,0.2
		c-1.2,0.3-2.4,0.8-3.3,1.6c-0.9,0.8-1.6,2-1.7,3.5c-0.1,0.8,0,1.8,0.2,2.8c0,0,0,0,0,0.1C13.3,13.3,14.7,15.7,16.9,17.1z"/>
	<path fill-rule="evenodd" clip-rule="evenodd" fill="#FFFFFF" d="M27.7,28.9c-0.3,1.9-2.1,3.4-4.1,3.4l0,0c-2,0-3.7-1.5-4.1-3.4
		H27.7z"/>
	<path fill-rule="evenodd" clip-rule="evenodd" fill="#1C1C1C" d="M28.2,29c-0.2,1.1-0.8,2-1.6,2.7c-0.8,0.7-1.8,1.1-3,1.1
		c-1.1,0-2.2-0.4-3-1.1c-0.8-0.7-1.4-1.6-1.6-2.7c0-0.3,0.1-0.5,0.4-0.5c0,0,0.1,0,0.1,0l8.2,0c0.3,0,0.5,0.2,0.5,0.5
		C28.2,28.9,28.2,29,28.2,29L28.2,29z M26,31c0.5-0.4,0.9-1,1.1-1.6h-7c0.2,0.6,0.6,1.2,1.1,1.6c0.6,0.5,1.5,0.9,2.4,0.9
		C24.5,31.9,25.4,31.5,26,31z"/>
	<path fill-rule="evenodd" clip-rule="evenodd" fill="#1C1C1C" d="M11.1,63.4c-0.2-0.1-0.3-0.4-0.1-0.6c0.1-0.2,0.4-0.3,0.6-0.1
		c1.4,0.9,2.9,1.4,4.6,1.5c1.7,0.1,3.5-0.2,5.4-1c0.2-0.1,0.5,0,0.6,0.3c0.1,0.2,0,0.5-0.3,0.6c-2.1,0.8-4,1.1-5.8,1
		C14.4,64.9,12.7,64.4,11.1,63.4z"/>
	<path fill-rule="evenodd" clip-rule="evenodd" fill="#1C1C1C" d="M35.7,62.6c0.2-0.1,0.5-0.1,0.6,0.1c0.1,0.2,0.1,0.5-0.1,0.6
		c-1.5,1-3.2,1.5-5,1.6c-1.8,0.1-3.7-0.2-5.8-1c-0.2-0.1-0.4-0.4-0.3-0.6c0.1-0.2,0.4-0.4,0.6-0.3c1.9,0.7,3.7,1,5.4,1
		C32.7,64,34.3,63.5,35.7,62.6z"/>
	<path fill-rule="evenodd" clip-rule="evenodd" fill="#DC5940" d="M23.7,45.8c-2.7,0-4.9-1.9-4.9-4.2v-1.2h-1c-0.8,0-1.5,0-2.3,0.1
		v1.7c0,3.8,3.7,7,8.2,7c4.5,0,8.2-3.1,8.2-7v-1.7c-0.7-0.1-1.3-0.1-2-0.1h-1.2v1.2C28.6,43.9,26.4,45.8,23.7,45.8z"/>
	<path fill-rule="evenodd" clip-rule="evenodd" fill="#1C1C1C" d="M23.7,46.3c-1.5,0-2.8-0.5-3.8-1.4c-1-0.9-1.6-2-1.6-3.3v-0.8
		h-0.5c-0.4,0-0.8,0-1.1,0c-0.2,0-0.5,0-0.7,0.1v1.3c0,1.8,0.9,3.4,2.2,4.6c1.4,1.2,3.3,1.9,5.5,1.9c2.1,0,4.1-0.7,5.5-1.9
		c1.4-1.2,2.2-2.8,2.2-4.6v-1.3c-0.2,0-0.4,0-0.5,0c-0.3,0-0.6,0-1,0H29v0.8c0,1.3-0.6,2.5-1.6,3.3C26.5,45.7,25.1,46.3,23.7,46.3
		L23.7,46.3z M20.5,44.2c0.8,0.7,1.9,1.1,3.2,1.1c1.2,0,2.4-0.4,3.2-1.1c0.8-0.7,1.3-1.6,1.3-2.6v-1.7h1.7c0.3,0,0.7,0,1,0
		c0.3,0,0.7,0,1,0.1l0.4,0v2.2c0,2.1-1,3.9-2.6,5.3c-1.6,1.3-3.7,2.2-6.1,2.2c-2.4,0-4.5-0.8-6.1-2.2C16,46.1,15,44.3,15,42.2v-2.1
		l0.4-0.1c0.4,0,0.8-0.1,1.2-0.1c0.4,0,0.8,0,1.2,0h1.4v1.7C19.2,42.6,19.7,43.5,20.5,44.2z"/>
	<path fill-rule="evenodd" clip-rule="evenodd" fill="#1C1C1C" d="M41.7,24.7c0.1,0.2,0,0.5-0.3,0.6c-0.2,0.1-0.5,0-0.6-0.3
		c-0.7-2.1-1.9-3.8-3.4-4.9c-1.6-1.2-3.5-1.9-5.9-2.1c-0.3,0-0.4-0.3-0.4-0.5c0-0.3,0.3-0.4,0.5-0.4c2.6,0.2,4.7,1,6.4,2.3
		C39.6,20.6,40.9,22.4,41.7,24.7z"/>
</g>
</svg>
