<?xml version="1.0" encoding="utf-8"?>
<!-- Generator: Adobe Illustrator 18.0.0, SVG Export Plug-In . SVG Version: 6.00 Build 0)  -->
<!DOCTYPE svg PUBLIC "-//W3C//DTD SVG 1.1//EN" "http://www.w3.org/Graphics/SVG/1.1/DTD/svg11.dtd">
<svg version="1.1" id="Layer_1" xmlns="http://www.w3.org/2000/svg" xmlns:xlink="http://www.w3.org/1999/xlink" x="0px" y="0px"
	 viewBox="0 0 47.6 66.5" enable-background="new 0 0 47.6 66.5" xml:space="preserve">
<g id="Avatar_15">
	<path fill-rule="evenodd" clip-rule="evenodd" fill="#DCDBDB" d="M0.5,66h46.6V55.4c0-8.8-7.8-16-17.3-16h-12
		c-9.5,0-17.3,7.2-17.3,16V66z"/>
	<path fill-rule="evenodd" clip-rule="evenodd" fill="#1C1C1C" d="M0.9,65.5h45.7V55.4c0-4.3-1.9-8.1-4.9-11
		c-3.1-2.8-7.3-4.6-11.9-4.6h-12c-4.6,0-8.8,1.8-11.9,4.6c-3,2.8-4.9,6.7-4.9,11V65.5L0.9,65.5z M47.1,66.5H0.5
		C0.2,66.5,0,66.3,0,66V55.4c0-4.5,2-8.7,5.2-11.6c3.2-3,7.7-4.8,12.5-4.8h12c4.9,0,9.3,1.8,12.5,4.8c3.2,3,5.2,7.1,5.2,11.6V66
		C47.6,66.3,47.4,66.5,47.1,66.5z"/>
	<path fill-rule="evenodd" clip-rule="evenodd" fill="#1C1C1C" d="M9.5,51.9c0.1-0.2,0.4-0.4,0.6-0.3c0.2,0.1,0.4,0.4,0.3,0.6
		c-0.3,0.8-0.5,1.6-0.6,2.5c-0.1,0.8-0.2,1.7-0.2,2.6v8.4H38v-8.4c0-0.9-0.1-1.7-0.2-2.6c-0.1-0.9-0.4-1.7-0.6-2.5
		c-0.1-0.2,0-0.5,0.3-0.6c0.2-0.1,0.5,0,0.6,0.3c0.3,0.8,0.5,1.7,0.7,2.6c0.1,0.9,0.2,1.8,0.2,2.7V66c0,0.3-0.2,0.5-0.5,0.5H9.1
		c-0.3,0-0.5-0.2-0.5-0.5v-8.8c0-0.9,0.1-1.8,0.2-2.7C9,53.6,9.2,52.7,9.5,51.9z"/>
	<path fill-rule="evenodd" clip-rule="evenodd" fill="#FDC27A" d="M18.7,34.5h9.8v6.1c0,0.4-0.1,0.7-0.2,1.1
		c-0.8,3.5-3.7,5.1-4.8,5.9c-1.2-0.9-4.6-2.5-4.9-6.6c0-0.1,0-0.2,0-0.4V34.5z"/>
	<path fill-rule="evenodd" clip-rule="evenodd" fill="#1C1C1C" d="M18.7,34H29v6.6c0,0.2,0,0.4,0,0.6c0,0.2-0.1,0.4-0.1,0.6
		c-0.7,3.1-3,4.8-4.4,5.8c-0.2,0.2-0.4,0.3-0.6,0.4l-0.3,0.2L23.4,48c-0.2-0.1-0.4-0.3-0.7-0.5c-1.5-1-4.1-2.8-4.4-6.5
		c0-0.1,0-0.1,0-0.2c0-0.1,0-0.1,0-0.2V34H18.7L18.7,34z M28.1,35h-8.9v5.6l0,0.2c0,0.1,0,0.1,0,0.2l0,0c0.2,3.2,2.6,4.8,4,5.8
		c0.2,0.1,0.3,0.2,0.4,0.3l0.3-0.2c1.3-0.9,3.4-2.4,4-5.2l0,0c0-0.1,0.1-0.3,0.1-0.5c0-0.2,0-0.3,0-0.5V35z"/>
	<path fill-rule="evenodd" clip-rule="evenodd" fill="#FDC27A" d="M23.9,4.2L23.9,4.2c6.4,0,11.6,5.2,11.6,11.6v8.6
		c0,6.4-5.2,11.6-11.6,11.6h0c-6.4,0-11.6-5.2-11.6-11.6v-8.6C12.2,9.4,17.5,4.2,23.9,4.2z"/>
	<path fill-rule="evenodd" clip-rule="evenodd" fill="#1C1C1C" d="M23.9,3.7c3.3,0,6.4,1.4,8.5,3.6c2.2,2.2,3.6,5.2,3.6,8.5v8.6
		c0,3.3-1.4,6.4-3.6,8.5c-2.2,2.2-5.2,3.6-8.5,3.6c-3.3,0-6.4-1.4-8.5-3.6c-2.2-2.2-3.6-5.2-3.6-8.5v-8.6c0-3.3,1.4-6.4,3.6-8.5
		C17.5,5.1,20.5,3.7,23.9,3.7L23.9,3.7z M31.7,7.9c-2-2-4.8-3.3-7.9-3.3c-3.1,0-5.9,1.3-7.9,3.3c-2,2-3.3,4.8-3.3,7.9v8.6
		c0,3.1,1.3,5.9,3.3,7.9c2,2,4.8,3.3,7.9,3.3c3.1,0,5.9-1.3,7.9-3.3c2-2,3.3-4.8,3.3-7.9v-8.6C35,12.7,33.8,10,31.7,7.9z"/>
	<path fill-rule="evenodd" clip-rule="evenodd" fill="#1C1C1C" d="M24.1,26.2c0,0.3-0.2,0.5-0.5,0.5c-0.3,0-0.5-0.2-0.5-0.5
		c0-0.8,0-1.2,0.2-1.5c0.3-0.4,0.6-0.4,1.3-0.4c0.3,0,0.4-0.1,0.5-0.3c0-0.1,0-0.2,0-0.3c0-0.1,0-0.2,0-0.3
		c-0.1-0.2-0.2-0.3-0.3-0.3c-0.3,0-0.5-0.2-0.5-0.5v-3.6c0-0.3,0.2-0.5,0.5-0.5c0.3,0,0.5,0.2,0.5,0.5v3.2c0.4,0.1,0.6,0.5,0.7,0.8
		c0.1,0.2,0.1,0.4,0.1,0.6c0,0.2,0,0.4-0.1,0.6c-0.2,0.5-0.6,0.9-1.4,0.9c-0.4,0-0.5,0-0.5,0C24.1,25.3,24.1,25.6,24.1,26.2z"/>
	<path fill-rule="evenodd" clip-rule="evenodd" fill="#FFFFFF" d="M27.7,27.9c-0.3,1.9-2.1,3.4-4.1,3.4l0,0c-2,0-3.7-1.5-4.1-3.4
		H27.7z"/>
	<path fill-rule="evenodd" clip-rule="evenodd" fill="#1C1C1C" d="M28.2,28c-0.2,1.1-0.8,2-1.6,2.7c-0.8,0.7-1.8,1.1-3,1.1
		c-1.1,0-2.2-0.4-3-1.1c-0.8-0.7-1.4-1.6-1.6-2.7c0-0.3,0.1-0.5,0.4-0.5c0,0,0.1,0,0.1,0l8.2,0c0.3,0,0.5,0.2,0.5,0.5
		C28.2,28,28.2,28,28.2,28L28.2,28z M26,30c0.5-0.4,0.9-1,1.1-1.6h-7c0.2,0.6,0.6,1.2,1.1,1.6c0.6,0.5,1.5,0.9,2.4,0.9
		C24.5,30.9,25.4,30.6,26,30z"/>
	<path fill-rule="evenodd" clip-rule="evenodd" fill="#FDC27A" d="M12.2,18.3L12.2,18.3c-0.1-0.5-0.5-0.9-1-0.9h-0.8
		c-0.6,0-1,0.5-1,1v3.3l0,0c0,1.7,1.2,3.1,2.9,3.4v-3.4v-3.3V18.3z"/>
	<path fill-rule="evenodd" clip-rule="evenodd" fill="#1C1C1C" d="M11.8,18.4L11.8,18.4c0-0.2-0.1-0.3-0.2-0.4
		c-0.1-0.1-0.2-0.1-0.4-0.1h-0.8c-0.2,0-0.3,0.1-0.4,0.2c-0.1,0.1-0.2,0.2-0.2,0.4v3.3c0,0.7,0.3,1.4,0.7,1.9
		c0.3,0.4,0.7,0.7,1.2,0.9V18.4L11.8,18.4z M12.2,17.3c0.1,0.1,0.3,0.3,0.4,0.5l0.2,0v7.9l-0.6-0.1c-0.9-0.2-1.7-0.7-2.3-1.4
		c-0.6-0.7-0.9-1.6-0.9-2.5v-3.3c0-0.4,0.2-0.8,0.4-1.1c0.3-0.3,0.6-0.4,1.1-0.4h0.8C11.6,16.9,11.9,17,12.2,17.3z"/>
	<path fill-rule="evenodd" clip-rule="evenodd" fill="#FDC27A" d="M35.5,18.3L35.5,18.3c0.1-0.5,0.5-0.9,1-0.9h0.8c0.6,0,1,0.5,1,1
		v3.3l0,0c0,1.7-1.2,3.1-2.9,3.4v-3.4v-3.3V18.3z"/>
	<path fill-rule="evenodd" clip-rule="evenodd" fill="#1C1C1C" d="M36,18.3L36,18.3l0,6.1c0.5-0.2,0.9-0.5,1.2-0.9
		c0.4-0.5,0.7-1.2,0.7-1.9v-3.3c0-0.2-0.1-0.3-0.2-0.4c-0.1-0.1-0.2-0.2-0.4-0.2h-0.8c-0.1,0-0.3,0.1-0.4,0.1
		C36.1,18.1,36,18.2,36,18.3L36,18.3z M35.2,17.7c0.1-0.2,0.2-0.3,0.4-0.5c0.3-0.2,0.6-0.4,1-0.4h0.8c0.4,0,0.8,0.2,1.1,0.4
		c0.3,0.3,0.4,0.6,0.4,1.1v3.3c0,1-0.3,1.8-0.9,2.5c-0.6,0.7-1.4,1.2-2.3,1.4L35,25.6v-7.9L35.2,17.7z"/>
	<path fill-rule="evenodd" clip-rule="evenodd" fill="#DC5940" d="M12.4,8.7c1.9,0,1.8,0.9,1.8,2.5v2.7v2.2c0,1.9-0.7,5.2-2.9,5.8
		v-5.5v-6C11.4,9.9,11.6,8.7,12.4,8.7z"/>
	<path fill-rule="evenodd" clip-rule="evenodd" fill="#1C1C1C" d="M12.4,8.3c2.3,0,2.3,0.9,2.3,2.7l0,0.2h0v4.9
		c0,1.1-0.3,2.8-0.9,4.1c-0.5,1-1.2,1.9-2.3,2.2c-0.2,0.1-0.5-0.1-0.6-0.3c0,0,0-0.1,0-0.1h0V10.5c0,0,0,0,0-0.1
		c0-0.4,0.1-1,0.4-1.5C11.5,8.6,11.9,8.3,12.4,8.3L12.4,8.3z M13.7,11c0-1.2,0-1.8-1.4-1.8c-0.1,0-0.2,0.1-0.3,0.2
		c-0.2,0.3-0.3,0.7-0.3,1c0.1,3.5,0,7.2,0,10.7c0.5-0.3,0.8-0.8,1.1-1.4c0.6-1.2,0.8-2.6,0.8-3.7v-4.9h0L13.7,11z"/>
	<path fill-rule="evenodd" clip-rule="evenodd" fill="#DC5940" d="M36.2,9.4c-0.1-0.9-0.5-1.6-1-1.6h-0.8l0,0h0l0,0l0,0l0,0l0,0l0,0
		c-0.9,0.1-1,1.6-1,3c0,1.5,0.1,2.9,0.1,4.4c0,1.9,0.7,5.2,2.9,5.8v-5.5v-6L36.2,9.4z"/>
	<path fill-rule="evenodd" clip-rule="evenodd" fill="#1C1C1C" d="M35.8,9.4c0-0.4-0.1-0.7-0.3-0.9c-0.1-0.1-0.2-0.2-0.3-0.2
		c-0.3,0-0.6,0-0.8,0c-0.2,0-0.3,0.3-0.4,0.7c-0.1,0.5-0.2,1.2-0.2,1.9c0,0.7,0,1.4,0,2.1c0,0.8,0,1.6,0,2.3c0,1,0.2,2.5,0.8,3.7
		c0.3,0.6,0.7,1.1,1.1,1.4c0-3.6-0.1-7.2,0-10.7L35.8,9.4L35.8,9.4z M36.3,8c0.2,0.3,0.4,0.8,0.4,1.3l0,0.2c0,0,0,0,0,0.1V21h0
		c0,0,0,0.1,0,0.1c-0.1,0.2-0.3,0.4-0.6,0.3c-1-0.3-1.8-1.2-2.3-2.2c-0.6-1.3-0.9-2.9-0.9-4.1c0-0.8,0-1.5,0-2.3c0-0.7,0-1.4,0-2.1
		c0-0.7,0-1.5,0.2-2.1c0.2-0.7,0.6-1.3,1.2-1.4c0.1,0,0.1,0,0.2,0h0.8C35.6,7.3,36,7.6,36.3,8z"/>
	<path fill-rule="evenodd" clip-rule="evenodd" fill="#DC5940" d="M24.4,2.4c-4.9,0-10.1,0.4-10.4,6.4c-0.2,3.1,3.7,3.6,6.4,3.6h8
		c2.6,0,4.9-0.7,6.8-2c2.2-1.5,3.7-3.6,4-6c0-0.3,0.1-0.6,0.1-1c0-1-0.2-1.9-0.5-2.7c-1.8,1.1-4,1.7-6.4,1.7H24.4z"/>
	<path fill-rule="evenodd" clip-rule="evenodd" fill="#1C1C1C" d="M24.4,2.9c-2.4,0-4.9,0.1-6.7,0.9c-1.8,0.8-3.1,2.2-3.2,5
		c-0.1,1.3,0.7,2.1,1.8,2.5c1.2,0.5,2.8,0.6,4.1,0.6h8c1.2,0,2.4-0.2,3.5-0.5c1.1-0.3,2.2-0.8,3.1-1.4c1.1-0.7,1.9-1.6,2.6-2.6
		c0.6-1,1-2,1.2-3.1c0-0.1,0-0.3,0-0.4c0-0.1,0-0.3,0-0.5c0-0.4,0-0.9-0.1-1.3c0-0.3-0.1-0.5-0.2-0.7c-0.8,0.4-1.7,0.8-2.6,1
		c-1.1,0.3-2.3,0.5-3.5,0.5H24.4L24.4,2.9z M17.3,2.9c2-0.9,4.6-1,7.1-1h8c1.1,0,2.2-0.1,3.2-0.4c1.1-0.3,2-0.7,2.9-1.2L39,0
		l0.2,0.5c0.2,0.5,0.3,0.9,0.4,1.4c0.1,0.5,0.1,1,0.1,1.5c0,0.2,0,0.3,0,0.5c0,0.2,0,0.3-0.1,0.5C39.5,5.7,39,6.9,38.3,8
		c-0.7,1.1-1.7,2-2.9,2.8c-1,0.7-2.1,1.2-3.3,1.5c-1.2,0.3-2.4,0.5-3.7,0.5h-8c-1.4,0-3.1-0.1-4.5-0.7c-1.5-0.6-2.5-1.6-2.4-3.5
		C13.6,5.5,15.1,3.8,17.3,2.9z"/>
	<circle fill-rule="evenodd" clip-rule="evenodd" fill="#40545A" cx="18.4" cy="20.4" r="1.4"/>
	<path fill-rule="evenodd" clip-rule="evenodd" fill="#1C1C1C" d="M18.4,18.5c0.5,0,1,0.2,1.3,0.5l0,0c0.3,0.3,0.5,0.8,0.5,1.3
		c0,0.5-0.2,1-0.5,1.3c-0.3,0.3-0.8,0.5-1.3,0.5c-0.5,0-1-0.2-1.3-0.5l0,0c-0.3-0.3-0.5-0.8-0.5-1.3c0-0.5,0.2-1,0.5-1.3
		C17.4,18.7,17.9,18.5,18.4,18.5L18.4,18.5z M19.1,19.7c-0.2-0.2-0.4-0.3-0.7-0.3c-0.3,0-0.5,0.1-0.7,0.3c-0.2,0.2-0.3,0.4-0.3,0.7
		c0,0.3,0.1,0.5,0.3,0.7l0,0c0.2,0.2,0.4,0.3,0.7,0.3c0.3,0,0.5-0.1,0.7-0.3c0.2-0.2,0.3-0.4,0.3-0.7C19.3,20.1,19.2,19.9,19.1,19.7
		z"/>
	<circle fill-rule="evenodd" clip-rule="evenodd" fill="#40545A" cx="29.3" cy="20.4" r="1.4"/>
	<path fill-rule="evenodd" clip-rule="evenodd" fill="#1C1C1C" d="M29.3,19.4c-0.3,0-0.5,0.1-0.7,0.3l0,0c-0.2,0.2-0.3,0.4-0.3,0.7
		c0,0.3,0.1,0.5,0.3,0.7c0.2,0.2,0.4,0.3,0.7,0.3c0.3,0,0.5-0.1,0.7-0.3c0.2-0.2,0.3-0.4,0.3-0.7c0-0.3-0.1-0.5-0.3-0.7
		C29.8,19.5,29.6,19.4,29.3,19.4L29.3,19.4z M28,19c0.3-0.3,0.8-0.5,1.3-0.5c0.5,0,1,0.2,1.3,0.5l0,0c0.3,0.3,0.5,0.8,0.5,1.3
		c0,0.5-0.2,1-0.5,1.3c-0.3,0.3-0.8,0.5-1.3,0.5c-0.5,0-1-0.2-1.3-0.5c-0.3-0.3-0.5-0.8-0.5-1.3C27.5,19.9,27.7,19.4,28,19L28,19z"
		/>
	<path fill-rule="evenodd" clip-rule="evenodd" fill="#DC5940" d="M23.7,47.6c-1.2-0.9-4.6-2.5-4.9-6.6c0-0.1,0-0.2,0-0.4v-1.2h-1
		c-0.9,0-1.7,0.1-2.5,0.2c0.2,8.3,6.4,10.7,8.5,12.1c2.1-1.4,8.3-4,8.5-12.1c-0.8-0.1-1.7-0.2-2.5-0.2h-1.2v1.2
		c0,0.4-0.1,0.7-0.2,1.1C27.6,45.1,24.7,46.7,23.7,47.6z"/>
	<path fill-rule="evenodd" clip-rule="evenodd" fill="#1C1C1C" d="M23.4,48c-0.2-0.1-0.4-0.3-0.7-0.5c-1.5-1-4.1-2.8-4.4-6.5
		c0-0.1,0-0.1,0-0.2c0-0.1,0-0.1,0-0.2v-0.8h-0.5c-0.4,0-0.8,0-1.2,0c-0.3,0-0.5,0-0.8,0.1c0.4,6.7,4.9,9.3,7.4,10.7
		c0.3,0.1,0.5,0.3,0.7,0.4c0.2-0.1,0.4-0.2,0.7-0.4c2.5-1.4,7-4.1,7.4-10.8c-0.3,0-0.5-0.1-0.8-0.1c-0.4,0-0.8,0-1.2,0H29v0.8
		c0,0.2,0,0.4,0,0.6c0,0.2-0.1,0.4-0.1,0.6c-0.7,3.1-3,4.8-4.4,5.8c-0.2,0.2-0.4,0.3-0.6,0.4l-0.3,0.2L23.4,48L23.4,48z M23.2,46.7
		c0.2,0.1,0.3,0.2,0.4,0.3l0.3-0.2c1.3-0.9,3.4-2.4,4-5.2l0,0c0-0.1,0.1-0.3,0.1-0.5c0-0.2,0-0.3,0-0.5v-1.7h1.7c0.4,0,0.9,0,1.3,0
		c0.4,0,0.9,0.1,1.3,0.1l0.4,0.1l0,0.4c-0.2,7.5-5.2,10.4-7.9,12c-0.3,0.2-0.6,0.4-0.9,0.5l-0.3,0.2l-0.3-0.2
		c-0.2-0.2-0.6-0.3-0.9-0.5c-2.7-1.6-7.6-4.4-7.8-12l0-0.4l0.4-0.1C15.6,39,16,39,16.5,39c0.4,0,0.9,0,1.3,0h1.4v1.7l0,0.2
		c0,0.1,0,0.1,0,0.2l0,0C19.5,44.2,21.8,45.7,23.2,46.7z"/>
	<path fill-rule="evenodd" clip-rule="evenodd" fill="#1C1C1C" d="M12.1,40.4C12.9,49,19,52.9,22.5,55.1c0.5,0.3,0.9,0.6,1.3,0.8
		c0.4-0.3,0.8-0.6,1.3-0.9c3.4-2.2,9.5-5.9,10.4-14.7l0.9,0.1c-1,9.2-7.3,13.2-10.8,15.4c-0.6,0.4-1.2,0.7-1.6,1l-0.3,0.2l-0.3-0.2
		c-0.4-0.3-0.9-0.6-1.5-1c-3.6-2.3-10-6.4-10.8-15.5L12.1,40.4z"/>
	<path fill-rule="evenodd" clip-rule="evenodd" fill="#1C1C1C" d="M15.8,17.8c-0.2,0.2-0.5,0.2-0.7,0c-0.2-0.2-0.2-0.5,0-0.7
		c0.4-0.4,0.9-0.8,1.5-1l0,0c0.5-0.2,1.1-0.3,1.7-0.3c0.6,0,1.2,0.1,1.7,0.3l0,0c0.6,0.2,1.1,0.6,1.5,1c0.2,0.2,0.2,0.5,0,0.7
		c-0.2,0.2-0.5,0.2-0.7,0c-0.3-0.3-0.7-0.6-1.2-0.8c-0.4-0.2-0.9-0.3-1.4-0.3c-0.5,0-0.9,0.1-1.4,0.3l0,0
		C16.6,17.2,16.2,17.5,15.8,17.8L15.8,17.8z M26.8,17.8c-0.2,0.2-0.5,0.2-0.7,0c-0.2-0.2-0.2-0.5,0-0.7c0.4-0.4,0.9-0.8,1.5-1l0,0
		c0.5-0.2,1.1-0.3,1.7-0.3c0.6,0,1.2,0.1,1.7,0.3l0,0c0.6,0.2,1.1,0.6,1.5,1c0.2,0.2,0.2,0.5,0,0.7c-0.2,0.2-0.5,0.2-0.7,0
		c-0.3-0.3-0.7-0.6-1.2-0.8c-0.4-0.2-0.9-0.3-1.4-0.3c-0.5,0-0.9,0.1-1.4,0.3l0,0C27.5,17.2,27.1,17.5,26.8,17.8z"/>
	<path fill-rule="evenodd" clip-rule="evenodd" fill="#1C1C1C" d="M14.1,7.9c-0.2-0.2-0.2-0.5,0-0.7c0.2-0.2,0.5-0.2,0.7,0
		c0.7,0.7,1.8,1.2,3.1,1.5c1.4,0.3,3.2,0.4,5.1,0.4c0.3,0,0.5,0.2,0.5,0.5c0,0.3-0.2,0.5-0.5,0.5c-2,0-3.8-0.1-5.3-0.4
		C16.1,9.4,14.9,8.9,14.1,7.9z"/>
	<path fill-rule="evenodd" clip-rule="evenodd" fill="#1C1C1C" d="M13.2,3.7c0-0.3,0.2-0.5,0.5-0.5c0.3,0,0.5,0.2,0.5,0.5l0,5.3
		c0,0.3-0.2,0.5-0.5,0.5c-0.1,0-0.2,0-0.3-0.1l0,0l-3.3-2.7C9.9,6.5,9.9,6.2,10,6c0.2-0.2,0.5-0.2,0.7-0.1L13.2,8L13.2,3.7z"/>
</g>
</svg>
