<?xml version="1.0" encoding="utf-8"?>
<!-- Generator: Adobe Illustrator 18.0.0, SVG Export Plug-In . SVG Version: 6.00 Build 0)  -->
<!DOCTYPE svg PUBLIC "-//W3C//DTD SVG 1.1//EN" "http://www.w3.org/Graphics/SVG/1.1/DTD/svg11.dtd">
<svg version="1.1" id="Layer_1" xmlns="http://www.w3.org/2000/svg" xmlns:xlink="http://www.w3.org/1999/xlink" x="0px" y="0px"
	 viewBox="137.6 155 361.9 485" enable-background="new 137.6 155 361.9 485" xml:space="preserve">
<g id="Avatar_5">
	<path fill="#A76739" d="M141.4,637h354.3v-80.6c0-66.9-59.3-121.6-131.5-121.6H355v-13.7v-23.6h-74.5v37.3h-7.6
		c-72.2,0-131.5,54.7-131.5,121.6L141.4,637L141.4,637z"/>
	<path fill="#1C1C1C" d="M145.2,633.2h347.4v-76.8c0-32.7-14.4-61.6-37.3-83.6c-23.6-21.3-55.5-35-90.5-35h-9.1
		c-2.3,0-3.8-1.5-3.8-3.8v-33.5h-67.7V434c0,2.3-1.5,3.8-3.8,3.8h-7.6c-35,0-67.7,13.7-90.5,35c-22.8,21.3-37.3,50.9-37.3,83.6
		L145.2,633.2L145.2,633.2z M496.4,640h-355c-2.3,0-3.8-1.5-3.8-3.8v-79.8c0-34.2,15.2-66.1,39.5-88.2c24.3-22.8,58.5-36.5,95-36.5
		h3.8v-33.5c0-2.3,1.5-3.8,3.8-3.8h74.5c2.3,0,3.8,1.5,3.8,3.8v33.5h6.8c37.3,0,70.7,13.7,95,36.5c24.3,22.8,39.5,54,39.5,88.2V637
		C499.5,638.5,498,640,496.4,640z"/>
	<path fill="#1C1C1C" d="M210.6,529c0.8-1.5,3-3,4.6-2.3s3,3,2.3,4.6c-2.3,6.1-3.8,12.2-4.6,19c-0.8,6.1-1.5,12.9-1.5,19.8V634H428
		v-63.9c0-6.8-0.8-12.9-1.5-19.8c-0.8-6.8-3-12.9-4.6-19c-0.8-1.5,0-3.8,2.3-4.6c1.5-0.8,3.8,0,4.6,2.3c2.3,6.1,3.8,12.9,5.3,19.8
		c0.8,6.8,1.5,13.7,1.5,20.5v66.9c0,2.3-1.5,3.8-3.8,3.8h-225c-2.3,0-3.8-1.5-3.8-3.8v-66.9c0-6.8,0.8-13.7,1.5-20.5
		C206,542,208.3,535.9,210.6,529z"/>
	<path fill="#FDC27A" d="M355,386.1c0,8.4,0.8,51.7,0.8,51.7c-24.3,9.1-48.7,9.1-74.5,0c0-9.1-0.8-53.2-0.8-53.2
		C306.4,396,331.5,396.8,355,386.1z"/>
	<path fill="#1C1C1C" d="M358.8,386.1c0,9.9,0.8,51.7,0.8,51.7c0,1.5-0.8,3-2.3,3l0,0c-12.2,4.6-25.1,7.6-38,7.6s-25.8-2.3-39.5-7.6
		c-1.5-0.8-2.3-1.5-2.3-3c0-10.6-0.8-53.2-0.8-53.2c0-2.3,1.5-3.8,3.8-3.8c0.8,0,0.8,0,1.5,0c12.2,5.3,25.1,8.4,36.5,9.1
		c12.2,0,23.6-2.3,35-7.6c1.5-0.8,3.8,0,4.6,1.5C358.8,385.4,358.8,385.4,358.8,386.1L358.8,386.1L358.8,386.1z M352.8,435.5
		c0-7.6-0.8-32.7-0.8-44.1c-10.6,3.8-22,6.1-33.5,6.1s-22.8-2.3-34.2-7.6c0,11.4,0.8,35.7,0.8,45.6c11.4,3.8,23.6,6.1,34.2,6.1
		C330.7,441.6,342.1,439.3,352.8,435.5z"/>
	
		<rect x="230.2" y="532.1" transform="matrix(-0.2088 0.978 -0.978 -0.2088 926.9915 321.0898)" fill="#1C1C1C" width="206.8" height="6.8"/>
	<polygon fill="#1C1C1C" points="347.4,479.6 399.1,531.3 338.3,638.5 332.2,634.7 390.8,532.8 342.9,484.9 	"/>
	
		<rect x="209.8" y="518.6" transform="matrix(0.2087 0.978 -0.978 0.2087 747.2781 120.5317)" fill="#1C1C1C" width="178.7" height="6.8"/>
	<polygon fill="#1C1C1C" points="293.5,484.9 245.6,532.8 304.1,634.7 297.3,638.5 236.4,531.3 288.1,479.6 	"/>
	<path fill="#DCDBDB" d="M293.5,497.1l24.3,112.5l24.3-112.5l9.1-58.5c-22,8.4-44.1,8.4-67.7,0L293.5,497.1z"/>
	<path fill="#1C1C1C" d="M296.5,496.4l21.3,96.6c11.4-51.7,21.3-97.3,29.6-149c-9.1,3-19,4.6-28.9,4.6c-9.9,0-19.8-1.5-30.4-4.6
		L296.5,496.4L296.5,496.4z M314.7,610.4l-24.3-112.5l0,0l-9.1-58.5c0-0.8,0-1.5,0-2.3c0.8-1.5,3-3,4.6-2.3
		c11.4,3.8,22.8,6.1,33.5,6.1s21.3-2.3,31.9-6.1c0.8,0,1.5,0,1.5,0c2.3,0,3,2.3,3,3.8l-9.1,57.8c0,0,0,0,0,0.8l-24.3,112.5
		c0,1.5-1.5,2.3-3,3C317,613.4,314.7,611.9,314.7,610.4z"/>
	<path fill="#FDC27A" d="M319.3,167.2L319.3,167.2c48.7,0,88.2,39.5,88.2,88.2V320c0,48.7-39.5,88.2-88.2,88.2l0,0
		c-48.7,0-88.2-39.5-88.2-88.2v-65.4C231.1,206.7,270.6,167.2,319.3,167.2z"/>
	<path fill="#1C1C1C" d="M319.3,163.4c25.1,0,48.7,10.6,64.6,27.4c16.7,16.7,27.4,39.5,27.4,64.6V320c0,25.1-10.6,48.7-27.4,64.6
		c-16.7,16.7-39.5,27.4-64.6,27.4s-48.7-10.6-64.6-27.4c-16.7-16.7-27.4-39.5-27.4-64.6v-65.4c0-25.1,10.6-48.7,27.4-64.6
		S294.2,163.4,319.3,163.4L319.3,163.4z M379.4,195.3c-15.2-15.2-36.5-25.1-60.1-25.1c-23.6,0-44.9,9.9-60.1,25.1
		c-15.2,15.2-25.1,36.5-25.1,60.1V320c0,23.6,9.9,44.9,25.1,60.1c15.2,15.2,36.5,25.1,60.1,25.1c23.6,0,44.9-9.9,60.1-25.1
		c15.2-15.2,25.1-36.5,25.1-60.1v-65.4C404.5,231.8,394.6,210.5,379.4,195.3z"/>
	<circle fill="#40545A" cx="278.3" cy="289.6" r="10.6"/>
	<path fill="#1C1C1C" d="M278.3,275.9c3.8,0,7.6,1.5,9.9,3.8l0,0c2.3,2.3,3.8,6.1,3.8,9.9s-1.5,7.6-3.8,9.9l0,0
		c-2.3,2.3-6.1,3.8-9.9,3.8c-3.8,0-7.6-1.5-9.9-3.8s-3.8-6.1-3.8-9.9s1.5-7.6,3.8-9.9S273.7,275.9,278.3,275.9L278.3,275.9z
		 M282.8,285c-1.5-1.5-3-2.3-5.3-2.3s-3.8,0.8-5.3,2.3s-2.3,3-2.3,5.3s0.8,3.8,2.3,5.3s3,2.3,5.3,2.3s3.8-0.8,5.3-2.3s2.3-3,2.3-5.3
		C285.1,288,284.3,286.5,282.8,285L282.8,285z"/>
	<circle fill="#40545A" cx="361.1" cy="289.6" r="10.6"/>
	<path fill="#1C1C1C" d="M361.1,282.7c-2.3,0-3.8,0.8-5.3,2.3c-1.5,1.5-2.3,3-2.3,5.3s0.8,3.8,2.3,5.3l0,0c1.5,1.5,3,2.3,5.3,2.3
		c2.3,0,3.8-0.8,5.3-2.3c1.5-1.5,2.3-3,2.3-5.3s-0.8-3.8-2.3-5.3l0,0C364.9,283.5,363.4,282.7,361.1,282.7L361.1,282.7z
		 M351.2,279.7c2.3-2.3,6.1-3.8,9.9-3.8c3.8,0,7.6,1.5,9.9,3.8l0,0c2.3,2.3,3.8,6.1,3.8,9.9s-1.5,7.6-3.8,9.9l0,0
		c-2.3,2.3-6.1,3.8-9.9,3.8c-3.8,0-7.6-1.5-9.9-3.8l0,0c-2.3-2.3-3.8-6.1-3.8-9.9C346.7,285.8,348.2,282.7,351.2,279.7z"/>
	<path fill="#1C1C1C" d="M321.6,334.4c0,2.3-1.5,3.8-3.8,3.8c-2.3,0-3.8-1.5-3.8-3.8c0-6.1,0-9.1,1.5-11.4l0,0c2.3-3,4.6-3,9.9-3
		c2.3,0,3-0.8,3.8-2.3c0-0.8,0-1.5,0-2.3s0-1.5,0-2.3c-0.8-1.5-1.5-2.3-2.3-2.3c-2.3,0-3.8-1.5-3.8-3.8v-27.4c0-2.3,1.5-3.8,3.8-3.8
		c2.3,0,3.8,1.5,3.8,3.8v25.1c3,0.8,4.6,3.8,5.3,6.1c0.8,1.5,0.8,3,0.8,4.6c0,1.5,0,3-0.8,4.6c-1.5,3.8-4.6,6.8-10.6,6.8
		c-3,0-3.8,0-3.8,0l0,0C321.6,327.6,321.6,329.9,321.6,334.4z"/>
	<path fill="#FFFFFF" d="M349,347.3c-2.3,14.4-16,25.8-31.2,25.8l0,0c-15.2,0-28.1-11.4-31.2-25.8H349z"/>
	<path fill="#1C1C1C" d="M352.8,348.1c-1.5,8.4-6.1,15.2-12.2,20.5c-6.1,5.3-13.7,8.4-22.8,8.4c-8.4,0-16.7-3-22.8-8.4
		c-6.1-5.3-10.6-12.2-12.2-20.5c0-2.3,0.8-3.8,3-3.8h0.8H349C351.2,344.3,352.8,345.8,352.8,348.1
		C352.8,347.3,352.8,348.1,352.8,348.1L352.8,348.1z M336,363.3c3.8-3,6.8-7.6,8.4-12.2h-53.2c1.5,4.6,4.6,9.1,8.4,12.2
		c4.6,3.8,11.4,6.8,18.2,6.8C324.6,370.2,330.7,367.1,336,363.3z"/>
	<path fill="#DCDBDB" d="M231.1,198.3c0.8-6.8,3.8-12.2,7.6-12.2h6.1c4.6,0,7.6,6.1,7.6,13.7v42.6l0,0c0,22-9.1,40.3-22,44.1v-44.1
		v-42.6L231.1,198.3z"/>
	<path fill="#1C1C1C" d="M227.3,198.3c0-3.8,1.5-7.6,3-9.9c2.3-3,4.6-5.3,8.4-5.3h6.1c3.8,0,6.8,2.3,8.4,6.1c1.5,3,3,6.8,3,11.4
		v42.6c0,11.4-2.3,22-6.8,30.4c-4.6,9.1-10.6,15.2-17.5,17.5l-4.6,1.5v-92l0,0V198.3L227.3,198.3z M236.4,192.3
		c-0.8,1.5-1.5,3.8-2.3,6.8v1.5l0,0V282c3-2.3,6.1-6.1,9.1-11.4c3.8-7.6,6.1-16.7,6.1-27.4v-42.6c0-3-0.8-6.1-1.5-7.6
		c-0.8-1.5-1.5-2.3-2.3-2.3h-6.1C238,190.7,237.2,190.7,236.4,192.3z"/>
	<path fill="#DCDBDB" d="M408.3,235.6L408.3,235.6c-0.8-3.8-3-6.8-6.8-6.8h-5.3c-3.8,0-6.8,3.8-6.8,7.6v25.1l0,0
		c0,12.9,7.6,23.6,18.2,25.8v-25.8v-25.1v-0.8H408.3z"/>
	<path fill="#1C1C1C" d="M404.5,236.3L404.5,236.3c0-1.5-0.8-2.3-1.5-3s-0.8-0.8-1.5-0.8h-5.3c-0.8,0-1.5,0.8-1.5,0.8
		c-0.8,0.8-0.8,2.3-0.8,3v25.1c0,5.3,1.5,10.6,4.6,15.2c1.5,2.3,3.8,4.6,6.1,6.1L404.5,236.3L404.5,236.3z M408.3,228
		c0.8,0.8,1.5,2.3,2.3,3h0.8v60.8l-4.6-0.8c-6.1-1.5-11.4-5.3-15.2-10.6c-3.8-5.3-6.1-11.4-6.1-19v-25.1c0-3,0.8-6.1,3-7.6l0,0
		c1.5-2.3,4.6-3.8,7.6-3.8h5.3C404.5,224.9,406.7,226.5,408.3,228z"/>
	<path fill="#40545A" d="M314.7,235.6c-30.4,0-57-20.5-65.4-48.7c-6.8-22,22.8-27.4,40.3-27.4h50.2c16,0,31.2,5.3,42.6,15.2
		c13.7,11.4,22.8,27.4,25.1,45.6c0,2.3,0.8,4.6,0.8,7.6c0,7.6-1.5,14.4-3,20.5c-11.4-8.4-25.1-12.9-39.5-12.9H314.7z"/>
	<path fill="#1C1C1C" d="M314.7,238.6c-16,0-30.4-5.3-42.6-14.4c-12.2-9.1-21.3-22-25.8-36.5c-0.8-2.3-1.5-5.3-1.5-7.6
		c0-6.1,2.3-10.6,6.8-14.4c3.8-3,8.4-6.1,14.4-7.6c8.4-2.3,17.5-3,24.3-3h50.2c8.4,0,16,1.5,23.6,3.8c7.6,3,15.2,6.8,21.3,12.2
		c7.6,6.1,13.7,12.9,18.2,21.3c4.6,8.4,7.6,16.7,8.4,26.6c0,1.5,0,2.3,0,3.8s0,3,0,3.8c0,3.8,0,7.6-0.8,11.4
		c-0.8,3.8-1.5,7.6-2.3,10.6l-1.5,4.6l-4.6-2.3c-5.3-3.8-11.4-6.8-18.2-9.1c-6.1-2.3-12.9-3-19.8-3H314.7L314.7,238.6z M276.7,218.9
		c10.6,7.6,24.3,12.9,38,12.9h50.2c7.6,0,15.2,1.5,22,3.8c5.3,1.5,10.6,4.6,16,7.6c0.8-1.5,0.8-3,0.8-5.3c0.8-3,0.8-6.8,0.8-9.9
		c0-1.5,0-2.3,0-3.8c0-0.8,0-2.3,0-3.8c-0.8-8.4-3.8-16.7-7.6-23.6c-3.8-7.6-9.9-14.4-16-19.8c-5.3-4.6-12.2-8.4-19-10.6
		c-6.8-2.3-13.7-3.8-21.3-3.8h-50.2c-6.1,0-14.4,0.8-22,3c-4.6,1.5-8.4,3-11.4,6.1c-2.3,2.3-3.8,5.3-3.8,9.1c0,1.5,0,3,0.8,5.3
		C257,199.1,265.3,211.3,276.7,218.9z"/>
	<path fill="#FDC27A" d="M231.1,273.6L231.1,273.6c-0.8-3.8-3.8-6.8-7.6-6.8h-6.1c-4.6,0-7.6,3.8-7.6,7.6v25.1l0,0
		c0,12.9,9.1,23.6,22,25.8v-25.8v-25.1v-0.8H231.1z"/>
	<path fill="#1C1C1C" d="M227.3,274.4L227.3,274.4c0-1.5-0.8-2.3-1.5-3s-1.5-0.8-3-0.8h-6.1c-1.5,0-2.3,0.8-3,1.5
		c-0.8,0.8-1.5,1.5-1.5,3v25.1c0,5.3,2.3,10.6,5.3,14.4c2.3,3,5.3,5.3,9.1,6.8v-47.1H227.3z M231.1,266c0.8,0.8,2.3,2.3,3,3.8h1.5
		v60.1l-4.6-0.8c-6.8-1.5-12.9-5.3-17.5-10.6c-4.6-5.3-6.8-12.2-6.8-19v-25.1c0-3,1.5-6.1,3-8.4c2.3-2.3,4.6-3,8.4-3h6.1
		C226.6,263.7,228.8,264.5,231.1,266z"/>
	<path fill="#FDC27A" d="M408.3,273.6L408.3,273.6c0.8-3.8,3.8-6.8,7.6-6.8h6.1c4.6,0,7.6,3.8,7.6,7.6v25.1l0,0
		c0,12.9-9.1,23.6-22,25.8v-25.8v-25.1v-0.8H408.3z"/>
	<path fill="#1C1C1C" d="M411.3,274.4L411.3,274.4v46.4c3.8-1.5,6.8-3.8,9.1-6.8c3-3.8,5.3-9.1,5.3-14.4v-25.1c0-1.5-0.8-2.3-1.5-3
		s-1.5-1.5-3-1.5h-6.1c-0.8,0-2.3,0.8-3,0.8C412.1,272.1,411.3,273.6,411.3,274.4L411.3,274.4z M405.2,269.8c0.8-1.5,1.5-2.3,3-3.8
		c2.3-1.5,4.6-3,7.6-3h6.1c3,0,6.1,1.5,8.4,3c2.3,2.3,3,4.6,3,8.4v25.1c0,7.6-2.3,13.7-6.8,19s-10.6,9.1-17.5,10.6l-4.6,0.8v-60.1
		L405.2,269.8z"/>
	<path fill="#40545A" d="M232.6,240.9c3-7.6,9.9-12.2,20.5-14.4v-25.8c0-0.8,0-1.5,0-2.3c-0.8-6.1-3.8-10.6-7.6-10.6h-6.1
		c-3.8,0-7.6,5.3-7.6,12.2v1.5V244v3C231.1,244,231.9,242.4,232.6,240.9z"/>
	<path fill="#1C1C1C" d="M234.9,231c0.8-0.8,1.5-1.5,3-2.3c3-2.3,6.8-3.8,11.4-5.3v-22.8c0-0.8,0-0.8,0-0.8v-0.8
		c0-2.3-0.8-4.6-2.3-6.1c-0.8-2.3-1.5-2.3-2.3-2.3h-6.1c-0.8,0-1.5,0.8-2.3,1.5c-0.8,1.5-1.5,3.8-2.3,6.8v1.5l0,0V231H234.9z
		 M241.8,234.1c-3,2.3-4.6,4.6-6.1,7.6c-0.8,1.5-0.8,3-0.8,4.6l-6.8,60.1V200.6l0,0v-1.5c0-3.8,1.5-7.6,3-9.9c2.3-3,4.6-5.3,8.4-5.3
		h6.1c3,0,6.1,1.5,7.6,4.6c1.5,2.3,3,5.3,3,9.1c0,0.8,0,0.8,0,1.5l0,0c0,0.8,0,0.8,0,1.5v28.9l-3,0.8
		C248.6,231,244.8,231.8,241.8,234.1z"/>
	<path fill="#1C1C1C" d="M258.5,270.6c-1.5,1.5-3.8,1.5-5.3,0c-1.5-1.5-1.5-3.8,0-5.3c3-3,6.8-6.1,11.4-7.6
		c3.8-1.5,8.4-2.3,12.9-2.3s9.1,0.8,12.9,2.3c4.6,1.5,8.4,4.6,11.4,7.6c1.5,1.5,1.5,3.8,0,5.3c-1.5,1.5-3.8,1.5-5.3,0
		c-2.3-2.3-5.3-4.6-9.1-6.1c-3-1.5-6.8-2.3-10.6-2.3s-7.6,0.8-10.6,2.3C263.8,266,260.8,268.3,258.5,270.6L258.5,270.6z
		 M341.4,270.6c-1.5,1.5-3.8,1.5-5.3,0c-1.5-1.5-1.5-3.8,0-5.3c3-3,6.8-6.1,11.4-7.6c3.8-1.5,8.4-2.3,12.9-2.3s9.1,0.8,12.9,2.3
		c4.6,1.5,8.4,4.6,11.4,7.6c1.5,1.5,1.5,3.8,0,5.3c-1.5,1.5-3.8,1.5-5.3,0c-2.3-2.3-5.3-4.6-9.1-6.1c-3-1.5-6.8-2.3-10.6-2.3
		s-7.6,0.8-10.6,2.3C347.4,266,344.4,268.3,341.4,270.6z"/>
	<polygon fill="#A76739" points="345.2,482.7 368,504.7 409.8,494.1 382.4,435.5 355,416.5 	"/>
	<path fill="#1C1C1C" d="M349,481.1l19.8,19.8l35.7-9.9l-25.1-53.2l-22-15.2L349,481.1L349,481.1z M364.9,507.8l-23.6-23.6
		c3.8-24.3,7.6-48.7,11.4-73l32.7,22.8l28.9,63.1L366.4,510L364.9,507.8z"/>
	<polygon fill="#A76739" points="290.4,482.7 268.4,504.7 225.8,494.1 253.2,435.5 280.5,416.5 	"/>
	<path fill="#1C1C1C" d="M293.5,484.9l-24.3,24.3l-47.9-12.9c9.9-21.3,19.8-41.8,28.9-63.1l32.7-22.8l11.4,73L293.5,484.9
		L293.5,484.9z M266.8,500.9l19.8-19.8l-9.1-58.5l-22,15.2L230.4,491L266.8,500.9z"/>
</g>
</svg>
