<?xml version="1.0" encoding="utf-8"?>
<!-- Generator: Adobe Illustrator 18.0.0, SVG Export Plug-In . SVG Version: 6.00 Build 0)  -->
<!DOCTYPE svg PUBLIC "-//W3C//DTD SVG 1.1//EN" "http://www.w3.org/Graphics/SVG/1.1/DTD/svg11.dtd">
<svg version="1.1" id="Layer_1" xmlns="http://www.w3.org/2000/svg" xmlns:xlink="http://www.w3.org/1999/xlink" x="0px" y="0px"
	 viewBox="280.4 361.8 47.6 63.9" enable-background="new 280.4 361.8 47.6 63.9" xml:space="preserve">
<g id="Avatar_10">
	<path fill-rule="evenodd" clip-rule="evenodd" fill="#3F5359" d="M280.9,425.3h46.6v-10.6c0-8.8-7.8-16-17.3-16H309v-1.8v-3.1h-9.8
		v4.9h-1c-9.5,0-17.3,7.2-17.3,16V425.3z"/>
	<path fill-rule="evenodd" clip-rule="evenodd" fill="#1C1C1C" d="M281.4,424.8h45.7v-10.1c0-4.3-1.9-8.1-4.9-11
		c-3.1-2.8-7.3-4.6-11.9-4.6H309c-0.3,0-0.5-0.2-0.5-0.5v-4.4h-8.9v4.4c0,0.3-0.2,0.5-0.5,0.5h-1c-4.6,0-8.8,1.8-11.9,4.6
		c-3,2.8-4.9,6.7-4.9,11V424.8L281.4,424.8z M327.5,425.7h-46.6c-0.3,0-0.5-0.2-0.5-0.5v-10.6c0-4.5,2-8.7,5.2-11.6
		c3.2-3,7.7-4.8,12.5-4.8h0.5v-4.4c0-0.3,0.2-0.5,0.5-0.5h9.8c0.3,0,0.5,0.2,0.5,0.5v4.4h0.8c4.9,0,9.3,1.8,12.5,4.8
		c3.2,3,5.2,7.1,5.2,11.6v10.6C328,425.5,327.8,425.7,327.5,425.7z"/>
	<path fill-rule="evenodd" clip-rule="evenodd" fill="#1C1C1C" d="M289.9,411.1c0.1-0.2,0.4-0.4,0.6-0.3c0.2,0.1,0.4,0.4,0.3,0.6
		c-0.3,0.8-0.5,1.6-0.6,2.5c-0.1,0.8-0.2,1.7-0.2,2.6v8.4h28.5v-8.4c0-0.9-0.1-1.7-0.2-2.6c-0.1-0.9-0.4-1.7-0.6-2.5
		c-0.1-0.2,0-0.5,0.3-0.6c0.2-0.1,0.5,0,0.6,0.3c0.3,0.8,0.5,1.7,0.7,2.6c0.1,0.9,0.2,1.8,0.2,2.7v8.8c0,0.3-0.2,0.5-0.5,0.5h-29.4
		c-0.3,0-0.5-0.2-0.5-0.5v-8.8c0-0.9,0.1-1.8,0.2-2.7C289.4,412.8,289.6,411.9,289.9,411.1z"/>
	<path fill-rule="evenodd" clip-rule="evenodd" fill="#FFC278" d="M309,392.4c0,2,0.1,12.3,0.1,12.3c-3.2,2.3-6.4,2.3-9.8,0
		c0-2.3-0.1-12.7-0.1-12.7C302.6,394.8,305.8,395,309,392.4z"/>
	<path fill-rule="evenodd" clip-rule="evenodd" fill="#1C1C1C" d="M309.5,392.4c0,2.4,0.1,12.3,0.1,12.3c0,0.2-0.1,0.3-0.2,0.4l0,0
		c-1.7,1.2-3.4,1.8-5.1,1.8c-1.7,0-3.5-0.6-5.3-1.8c-0.1-0.1-0.2-0.2-0.2-0.4c0-2.6-0.1-12.7-0.1-12.7c0-0.3,0.2-0.5,0.5-0.5
		c0.1,0,0.2,0,0.3,0.1c1.6,1.3,3.2,2,4.7,2.1c1.5,0.1,3-0.5,4.5-1.7c0.2-0.2,0.5-0.1,0.7,0.1C309.4,392.2,309.5,392.3,309.5,392.4
		L309.5,392.4L309.5,392.4z M308.6,404.5c0-1.4-0.1-8.4-0.1-11.2c-1.4,1-2.9,1.4-4.4,1.3c-1.5-0.1-3-0.6-4.5-1.7
		c0,2.6,0.1,9.5,0.1,11.5c1.5,1,3.1,1.5,4.5,1.5C305.8,406,307.2,405.5,308.6,404.5z"/>
	
		<rect x="292.5" y="411.5" transform="matrix(0.2088 -0.978 0.978 0.2088 -160.6269 625.3491)" fill-rule="evenodd" clip-rule="evenodd" fill="#1C1C1C" width="27.2" height="0.9"/>
	<polygon fill-rule="evenodd" clip-rule="evenodd" fill="#1C1C1C" points="308,404.6 314.8,411.4 306.7,425.5 305.9,425 
		313.6,411.6 307.3,405.3 	"/>
	
		<rect x="289.8" y="409.7" transform="matrix(-0.2088 -0.978 0.978 -0.2088 -36.5262 790.7305)" fill-rule="evenodd" clip-rule="evenodd" fill="#1C1C1C" width="23.5" height="0.9"/>
	<polygon fill-rule="evenodd" clip-rule="evenodd" fill="#1C1C1C" points="300.8,405.3 294.5,411.6 302.2,425 301.4,425.5 
		293.4,411.4 300.2,404.6 	"/>
	<path fill-rule="evenodd" clip-rule="evenodd" fill="#DBDBDB" d="M300.8,408.8l3.2,12.9l3.2-12.9l1.2-6.7c-2.9,1-5.8,1-8.9,0
		L300.8,408.8z"/>
	<path fill-rule="evenodd" clip-rule="evenodd" fill="#1C1C1C" d="M301.3,408.6l2.8,11.1l2.8-11.1l1.1-5.9c-1.2,0.3-2.5,0.5-3.8,0.5
		c-1.3,0-2.6-0.2-3.9-0.5L301.3,408.6L301.3,408.6z M303.6,421.8l-3.2-12.9l-1.2-6.7c0-0.1,0-0.2,0-0.3c0.1-0.2,0.3-0.4,0.6-0.3
		c1.5,0.5,3,0.7,4.4,0.7c1.4,0,2.8-0.2,4.2-0.7c0.1,0,0.2,0,0.2,0c0.3,0,0.4,0.3,0.4,0.5l-1.2,6.6c0,0,0,0,0,0.1l-3.2,12.9
		c0,0.2-0.2,0.3-0.3,0.4C303.9,422.2,303.7,422,303.6,421.8z"/>
	<path fill-rule="evenodd" clip-rule="evenodd" fill="#FFC278" d="M304.3,363.4L304.3,363.4c6.4,0,11.6,5.2,11.6,11.6v8.6
		c0,6.4-5.2,11.6-11.6,11.6h0c-6.4,0-11.6-5.2-11.6-11.6v-8.6C292.7,368.7,297.9,363.4,304.3,363.4z"/>
	<path fill-rule="evenodd" clip-rule="evenodd" fill="#1C1C1C" d="M304.3,363c3.3,0,6.4,1.4,8.5,3.6c2.2,2.2,3.6,5.2,3.6,8.5v8.6
		c0,3.3-1.4,6.4-3.6,8.5c-2.2,2.2-5.2,3.6-8.5,3.6c-3.3,0-6.4-1.4-8.5-3.6c-2.2-2.2-3.6-5.2-3.6-8.5v-8.6c0-3.3,1.4-6.4,3.6-8.5
		C297.9,364.3,301,363,304.3,363L304.3,363z M312.2,367.2c-2-2-4.8-3.3-7.9-3.3c-3.1,0-5.9,1.3-7.9,3.3c-2,2-3.3,4.8-3.3,7.9v8.6
		c0,3.1,1.3,5.9,3.3,7.9c2,2,4.8,3.3,7.9,3.3c3.1,0,5.9-1.3,7.9-3.3c2-2,3.3-4.8,3.3-7.9v-8.6C315.4,372,314.2,369.2,312.2,367.2z"
		/>
	<circle fill-rule="evenodd" clip-rule="evenodd" fill="#3F5359" cx="298.8" cy="379.6" r="1.4"/>
	<path fill-rule="evenodd" clip-rule="evenodd" fill="#1C1C1C" d="M298.8,377.8c0.5,0,1,0.2,1.3,0.5v0c0.3,0.3,0.5,0.8,0.5,1.3
		c0,0.5-0.2,1-0.5,1.3v0c-0.3,0.3-0.8,0.5-1.3,0.5c-0.5,0-1-0.2-1.3-0.5c-0.3-0.3-0.5-0.8-0.5-1.3c0-0.5,0.2-1,0.5-1.3h0
		C297.8,378,298.3,377.8,298.8,377.8L298.8,377.8z M299.5,379L299.5,379c-0.2-0.2-0.4-0.3-0.7-0.3c-0.3,0-0.5,0.1-0.7,0.3l0,0
		c-0.2,0.2-0.3,0.4-0.3,0.7c0,0.3,0.1,0.5,0.3,0.7c0.2,0.2,0.4,0.3,0.7,0.3s0.5-0.1,0.7-0.3l0,0c0.2-0.2,0.3-0.4,0.3-0.7
		S299.6,379.1,299.5,379z"/>
	<circle fill-rule="evenodd" clip-rule="evenodd" fill="#3F5359" cx="309.8" cy="379.6" r="1.4"/>
	<path fill-rule="evenodd" clip-rule="evenodd" fill="#1C1C1C" d="M309.8,378.7c-0.3,0-0.5,0.1-0.7,0.3l0,0
		c-0.2,0.2-0.3,0.4-0.3,0.7c0,0.3,0.1,0.5,0.3,0.7c0.2,0.2,0.4,0.3,0.7,0.3c0.3,0,0.5-0.1,0.7-0.3l0,0c0.2-0.2,0.3-0.4,0.3-0.7
		s-0.1-0.5-0.3-0.7l0,0C310.2,378.8,310,378.7,309.8,378.7L309.8,378.7z M308.4,378.3c0.3-0.3,0.8-0.5,1.3-0.5c0.5,0,1,0.2,1.3,0.5
		v0c0.3,0.3,0.5,0.8,0.5,1.3c0,0.5-0.2,1-0.5,1.3v0c-0.3,0.3-0.8,0.5-1.3,0.5c-0.5,0-1-0.2-1.3-0.5c-0.3-0.3-0.5-0.8-0.5-1.3
		C307.9,379.1,308.1,378.6,308.4,378.3L308.4,378.3z"/>
	<path fill-rule="evenodd" clip-rule="evenodd" fill="#1C1C1C" d="M304.5,385.5c0,0.3-0.2,0.5-0.5,0.5c-0.3,0-0.5-0.2-0.5-0.5
		c0-0.8,0-1.2,0.2-1.5c0.3-0.4,0.6-0.4,1.3-0.4c0.3,0,0.4-0.1,0.5-0.3c0-0.1,0-0.2,0-0.3c0-0.1,0-0.2,0-0.3
		c-0.1-0.2-0.2-0.3-0.3-0.3c-0.3,0-0.5-0.2-0.5-0.5v-3.6c0-0.3,0.2-0.5,0.5-0.5c0.3,0,0.5,0.2,0.5,0.5v3.2c0.4,0.1,0.6,0.5,0.7,0.8
		v0c0.1,0.2,0.1,0.4,0.1,0.6c0,0.2,0,0.4-0.1,0.6c-0.2,0.5-0.6,0.9-1.4,0.9c-0.4,0-0.5,0-0.5,0C304.5,384.6,304.5,384.9,304.5,385.5
		z"/>
	<path fill-rule="evenodd" clip-rule="evenodd" fill="#FFFFFF" d="M308.2,387.2c-0.3,1.9-2.1,3.4-4.1,3.4l0,0c-2,0-3.7-1.5-4.1-3.4
		H308.2z"/>
	<path fill-rule="evenodd" clip-rule="evenodd" fill="#1C1C1C" d="M308.6,387.3c-0.2,1.1-0.8,2-1.6,2.7c-0.8,0.7-1.8,1.1-3,1.1
		c-1.1,0-2.2-0.4-3-1.1c-0.8-0.7-1.4-1.6-1.6-2.7c0-0.3,0.1-0.5,0.4-0.5c0,0,0.1,0,0.1,0l8.2,0c0.3,0,0.5,0.2,0.5,0.5
		C308.6,387.2,308.6,387.2,308.6,387.3L308.6,387.3z M306.4,389.3c0.5-0.4,0.9-1,1.1-1.6h-7c0.2,0.6,0.6,1.2,1.1,1.6
		c0.6,0.5,1.5,0.9,2.4,0.9C305,390.1,305.8,389.8,306.4,389.3z"/>
	<path fill-rule="evenodd" clip-rule="evenodd" fill="#FFC278" d="M292.7,377.5L292.7,377.5c-0.1-0.5-0.5-0.9-1-0.9h-0.8
		c-0.6,0-1,0.5-1,1v3.3l0,0c0,1.7,1.2,3.1,2.9,3.4v-3.4v-3.3V377.5z"/>
	<path fill-rule="evenodd" clip-rule="evenodd" fill="#1C1C1C" d="M292.2,377.6L292.2,377.6c0-0.2-0.1-0.3-0.2-0.4
		c-0.1-0.1-0.2-0.1-0.4-0.1h-0.8c-0.2,0-0.3,0.1-0.4,0.2c-0.1,0.1-0.2,0.2-0.2,0.4v3.3c0,0.7,0.3,1.4,0.7,1.9
		c0.3,0.4,0.7,0.7,1.2,0.9V377.6L292.2,377.6z M292.6,376.5c0.1,0.1,0.3,0.3,0.4,0.5l0.2,0v7.9l-0.6-0.1c-0.9-0.2-1.7-0.7-2.3-1.4
		c-0.6-0.7-0.9-1.6-0.9-2.5v-3.3c0-0.4,0.2-0.8,0.4-1.1c0.3-0.3,0.6-0.4,1.1-0.4h0.8C292,376.1,292.4,376.3,292.6,376.5z"/>
	<path fill-rule="evenodd" clip-rule="evenodd" fill="#FFC278" d="M315.9,377.5L315.9,377.5c0.1-0.5,0.5-0.9,1-0.9h0.8
		c0.6,0,1,0.5,1,1v3.3l0,0c0,1.7-1.2,3.1-2.9,3.4v-3.4v-3.3V377.5z"/>
	<path fill-rule="evenodd" clip-rule="evenodd" fill="#1C1C1C" d="M316.4,377.6L316.4,377.6l0,6.1c0.5-0.2,0.9-0.5,1.2-0.9
		c0.4-0.5,0.7-1.2,0.7-1.9v-3.3c0-0.2-0.1-0.3-0.2-0.4c-0.1-0.1-0.2-0.2-0.4-0.2h-0.8c-0.1,0-0.3,0.1-0.4,0.1
		C316.5,377.3,316.4,377.4,316.4,377.6L316.4,377.6z M315.6,377c0.1-0.2,0.2-0.3,0.4-0.5c0.3-0.2,0.6-0.4,1-0.4h0.8
		c0.4,0,0.8,0.2,1.1,0.4c0.3,0.3,0.4,0.6,0.4,1.1v3.3c0,1-0.3,1.8-0.9,2.5c-0.6,0.7-1.4,1.2-2.3,1.4l-0.6,0.1V377L315.6,377z"/>
	<path fill-rule="evenodd" clip-rule="evenodd" fill="#1C1C1C" d="M296.3,377.1c-0.2,0.2-0.5,0.2-0.7,0c-0.2-0.2-0.2-0.5,0-0.7
		c0.4-0.4,0.9-0.8,1.5-1l0,0c0.5-0.2,1.1-0.3,1.7-0.3c0.6,0,1.2,0.1,1.7,0.3l0,0c0.6,0.2,1.1,0.6,1.5,1c0.2,0.2,0.2,0.5,0,0.7
		c-0.2,0.2-0.5,0.2-0.7,0c-0.3-0.3-0.7-0.6-1.2-0.8c-0.4-0.2-0.9-0.3-1.4-0.3c-0.5,0-0.9,0.1-1.4,0.3l0,0
		C297,376.5,296.6,376.7,296.3,377.1L296.3,377.1z M307.2,377.1c-0.2,0.2-0.5,0.2-0.7,0c-0.2-0.2-0.2-0.5,0-0.7
		c0.4-0.4,0.9-0.8,1.5-1l0,0c0.5-0.2,1.1-0.3,1.7-0.3c0.6,0,1.2,0.1,1.7,0.3l0,0c0.6,0.2,1.1,0.6,1.5,1c0.2,0.2,0.2,0.5,0,0.7
		c-0.2,0.2-0.5,0.2-0.7,0c-0.3-0.3-0.7-0.6-1.2-0.8c-0.4-0.2-0.9-0.3-1.4-0.3c-0.5,0-0.9,0.1-1.4,0.3l0,0
		C307.9,376.5,307.5,376.7,307.2,377.1z"/>
	<polygon fill-rule="evenodd" clip-rule="evenodd" fill="#DBDBDB" points="299.2,396.2 303.8,402 299.8,405.7 296.6,398.3 	"/>
	<path fill-rule="evenodd" clip-rule="evenodd" fill="#1C1C1C" d="M299.6,395.9l4.6,5.9c0.2,0.2,0.1,0.5-0.1,0.6l-3.9,3.6
		c-0.2,0.2-0.5,0.2-0.7,0c0,0-0.1-0.1-0.1-0.1l-3.2-7.4c-0.1-0.2,0-0.4,0.1-0.5l2.5-2.1C299.1,395.6,299.4,395.7,299.6,395.9
		L299.6,395.9L299.6,395.9z M303.1,402l-4-5.2l-1.9,1.6l2.8,6.5L303.1,402z"/>
	<polygon fill-rule="evenodd" clip-rule="evenodd" fill="#DBDBDB" points="309.2,396.2 304.6,402 308.6,405.7 311.7,398.3 	"/>
	<path fill-rule="evenodd" clip-rule="evenodd" fill="#1C1C1C" d="M309.3,396.8l-4,5.2l3.1,2.9l2.8-6.5L309.3,396.8L309.3,396.8z
		 M304.2,401.7l4.6-5.9c0.2-0.2,0.5-0.2,0.7-0.1l2.5,2.1c0.2,0.1,0.2,0.4,0.1,0.5l-3.2,7.4c0,0-0.1,0.1-0.1,0.1
		c-0.2,0.2-0.5,0.2-0.7,0l-3.9-3.6C304.1,402.2,304.1,401.9,304.2,401.7z"/>
	<polygon fill-rule="evenodd" clip-rule="evenodd" fill="#3F5359" points="307.6,404.9 310.6,407.9 316.2,406.4 312.6,398.8 
		309,396.3 	"/>
	<path fill-rule="evenodd" clip-rule="evenodd" fill="#1C1C1C" d="M308.1,404.8l2.6,2.6l4.7-1.3l-3.3-7l-2.9-2L308.1,404.8
		L308.1,404.8z M310.3,408.2l-3.1-3.1c0.5-3.2,1-6.4,1.5-9.6l4.3,3l3.8,8.3l-6.3,1.7L310.3,408.2z"/>
	<polygon fill-rule="evenodd" clip-rule="evenodd" fill="#3F5359" points="300.5,404.9 297.5,407.9 292,406.4 295.5,398.8 
		299.2,396.3 	"/>
	<path fill-rule="evenodd" clip-rule="evenodd" fill="#1C1C1C" d="M300.8,405.3l-3.2,3.2l-6.3-1.7c1.3-2.8,2.6-5.5,3.8-8.3l4.3-3
		l1.5,9.6L300.8,405.3L300.8,405.3z M297.4,407.4l2.6-2.6l-1.2-7.7l-2.9,2l-3.3,7L297.4,407.4z"/>
	<polygon fill-rule="evenodd" clip-rule="evenodd" fill="#DB5940" points="306.6,403.9 304.6,402 303.8,402 301.8,403.9 
		303.4,408.3 304.7,408.3 	"/>
	<path fill-rule="evenodd" clip-rule="evenodd" fill="#1C1C1C" d="M306,404l-1.6-1.5h-0.5l-1.6,1.5l1.4,3.8h0.7L306,404L306,404z
		 M304.9,401.7l2.2,2.1l-2.1,5h-2l-1.8-5l2.3-2.2h1.2L304.9,401.7z"/>
	<polygon fill-rule="evenodd" clip-rule="evenodd" fill="#DB5940" points="304.7,408.3 303.4,408.3 301.6,411.6 304.1,421.7 
		306.5,412 	"/>
	<path fill-rule="evenodd" clip-rule="evenodd" fill="#1C1C1C" d="M304.4,408.8h-0.8l-1.6,2.9l2,8.1l1.9-7.6L304.4,408.8
		L304.4,408.8z M303.4,407.8h1.7l1.9,4.2l-2.9,11.6c-1-4-2-8-3-12l2-3.7H303.4z"/>
	<path fill-rule="evenodd" clip-rule="evenodd" fill="#1C1C1C" d="M318.9,419.3c0.3,0,0.5,0.2,0.5,0.5c0,0.3-0.2,0.5-0.5,0.5h-5.8
		c-0.3,0-0.5-0.2-0.5-0.5c0-0.3,0.2-0.5,0.5-0.5H318.9z"/>
	<polygon fill-rule="evenodd" clip-rule="evenodd" fill="#FFFFFF" points="318.9,417.5 313.5,417.5 316,413.6 	"/>
	<path fill-rule="evenodd" clip-rule="evenodd" fill="#1C1C1C" d="M318.9,418h-5.4c-0.3,0-0.5-0.2-0.5-0.5c0-0.1,0-0.2,0.1-0.3
		l2.5-3.9c0.1-0.2,0.4-0.3,0.6-0.1c0.1,0,0.1,0.1,0.1,0.1l2.9,3.9c0.2,0.2,0.1,0.5-0.1,0.7C319.1,418,319,418,318.9,418L318.9,418
		L318.9,418z M314.4,417.1h3.6l-2-2.6L314.4,417.1z"/>
	<path fill-rule="evenodd" clip-rule="evenodd" fill="#DBDBDB" d="M304.3,362.3L304.3,362.3c6.4,0,11.6,1.6,11.6,8v9.1h-2.1v-3.8
		c0.1-6.4-3.3-9.3-9.5-6.2c-6.2-3.1-9.6-0.2-9.5,6.2v3.8h-2.2V370C292.7,363.6,297.9,362.3,304.3,362.3z"/>
	<path fill-rule="evenodd" clip-rule="evenodd" fill="#1C1C1C" d="M304.3,361.8c3.3,0,6.3,0.4,8.4,1.6c2.3,1.3,3.7,3.4,3.7,6.8v9.5
		h-3v-4.3l0,0c0-1.9-0.3-3.5-0.9-4.6c-0.4-0.7-0.9-1.3-1.5-1.7c-0.6-0.4-1.3-0.6-2.2-0.6c-1.2,0-2.7,0.4-4.3,1.2l-0.2,0.1l-0.2-0.1
		c-1.7-0.8-3.1-1.2-4.3-1.2c-0.8,0-1.6,0.2-2.2,0.6c-0.6,0.4-1.1,1-1.5,1.7c-0.6,1.2-0.9,2.7-0.9,4.6l0,0v4.3h-3.1V370
		c0-3.4,1.4-5.4,3.7-6.6C298,362.2,301,361.8,304.3,361.8L304.3,361.8z M304.3,362.8c-3.1,0-6,0.3-8,1.4c-2,1-3.2,2.8-3.2,5.8v8.9
		h1.2v-3.4h0c0-2.1,0.3-3.8,0.9-5.1c0.4-0.9,1.1-1.6,1.8-2.1c0.8-0.5,1.6-0.7,2.7-0.8c1.3,0,2.8,0.4,4.5,1.2
		c1.7-0.8,3.2-1.2,4.5-1.2c1,0,1.9,0.3,2.7,0.8c0.8,0.5,1.4,1.2,1.8,2.1c0.7,1.3,1,3,0.9,5.1h0v3.4h1.1v-8.6c0-3-1.2-4.9-3.2-6
		C310.2,363.2,307.4,362.8,304.3,362.8z"/>
	<path fill-rule="evenodd" clip-rule="evenodd" fill="#1C1C1C" d="M292.4,368.1c1.3-1.6,3-2.3,5.1-2.1c1.9,0.2,4.2,1.1,6.8,2.8
		c0.2-0.1,0.4-0.3,0.6-0.4c2.3-1.7,4.4-2.6,6.3-2.6c1.9-0.1,3.5,0.7,4.8,2.4c0.1,0.1,0.1,0.2,0.2,0.3l-0.8,0.5
		c-0.1-0.1-0.1-0.2-0.2-0.3c-1.1-1.4-2.4-2.1-4-2c-1.6,0-3.5,0.9-5.7,2.4c-0.3,0.2-0.5,0.4-0.8,0.6l-0.3,0.2l-0.3-0.2
		c-2.6-1.7-4.8-2.7-6.7-2.8c-1.8-0.1-3.2,0.5-4.3,1.8L292.4,368.1z"/>
</g>
</svg>
